<?xml version="1.0" encoding="utf-8"?>
<svg id="master-artboard" viewBox="0 0 500.8670654296875 487.6878356933594" version="1.1" xmlns="http://www.w3.org/2000/svg" x="0px" y="0px" style="enable-background:new 0 0 1400 980;" width="500.8670654296875px" height="487.6878356933594px"><rect id="ee-background" x="0" y="0" width="500.8670654296875" height="487.6878356933594" style="fill: white; fill-opacity: 0; pointer-events: none;"/>


<path d="M 396.299988 691.5 A 161.899994 161.899994 0 0 1 234.399994 853.399994 A 161.899994 161.899994 0 0 1 72.5 691.5 A 161.899994 161.899994 0 0 1 234.399994 529.600006 A 161.899994 161.899994 0 0 1 396.299988 691.5 Z" id="XMLID_606_" class="st1" style="fill: rgb(246, 139, 166);" transform="matrix(1, 0, 0, 1, 16.213865280151367, -476.0982666015625)"/><path id="XMLID_325_" class="st2" d="M113.6,759c-0.4,0.2-0.4,0.8,0,1l120.8,54.8V704.9L113.6,759z" style="fill: rgb(1, 106, 211);" transform="matrix(1, 0, 0, 1, 16.213865280151367, -476.0982666015625)"/><path id="XMLID_326_" class="st8" d="M355.9,759L235,704.9c-0.1-0.1-0.3-0.1-0.4,0l-0.2,0.1v109.9l0.2,0.1c0.1,0.1,0.3,0.1,0.4,0&#10;&#9;&#9;&#9;L355.9,760C356.3,759.8,356.3,759.2,355.9,759z" style="fill: rgb(1, 94, 186);" transform="matrix(1, 0, 0, 1, 16.213865280151367, -476.0982666015625)"/><path id="XMLID_321_" class="st3" d="M234.8,819.4c-0.7,0-1.4-0.1-2.1-0.4l-120.9-54.8c-1.8-0.8-3-2.6-2.9-4.6c0-2,1.2-3.8,3-4.6&#10;&#9;&#9;&#9;l120.9-54.2c1.3-0.6,2.8-0.6,4.1,0L357.7,755c1.8,0.8,3,2.6,3,4.6c0,2-1.2,3.8-2.9,4.6l-120.9,54.8&#10;&#9;&#9;&#9;C236.2,819.2,235.5,819.4,234.8,819.4z M123.4,759.6L234.8,810l111.3-50.5l-111.3-49.9L123.4,759.6z" style="fill: rgb(19, 31, 82);" transform="matrix(1, 0, 0, 1, 16.213865280151367, -477.0982666015625)"/><path id="XMLID_283_" class="st6" d="M112.5,759.7v116.5c0,0,0,0.1,0.1,0.1l122,55.3c0.1,0,0.1,0,0.1-0.1V815c0,0,0-0.1-0.1-0.1&#10;&#9;&#9;&#9;l-122-55.3C112.6,759.6,112.5,759.6,112.5,759.7z" style="fill: rgb(116, 189, 214); stroke: rgb(19, 31, 82); stroke-width: 8; stroke-miterlimit: 10;" transform="matrix(1, 0, 0, 1, 16.213865280151367, -475.0982666015625)"/><path id="XMLID_301_" class="st13" d="M357,759.6v116.7c0,0,0,0,0,0l-122.2,55.4c0,0,0,0,0,0V815c0,0,0,0,0,0L357,759.6&#10;&#9;&#9;&#9;C357,759.5,357,759.5,357,759.6z" style="fill: rgb(116, 189, 214); stroke: rgb(19, 31, 82); stroke-width: 8; stroke-miterlimit: 10;" transform="matrix(1, 0, 0, 1, 18.213865280151367, -476.0982666015625)"/><path id="XMLID_294_" class="st6" d="M112.2,760l-33.8,44.6c-0.3,0.4-0.2,1,0.3,1.2l123.5,57.1c0.4,0.2,0.8,0,1-0.3l31.1-46.9&#10;&#9;&#9;&#9;c0.3-0.4,0.1-1-0.3-1.2l-120.8-54.8C112.8,759.6,112.4,759.7,112.2,760z" style="fill: rgb(116, 189, 214); stroke: rgb(19, 31, 82); stroke-width: 8; stroke-miterlimit: 10;" transform="matrix(1, 0, 0, 1, 16.213865280151367, -476.0982666015625)"/><path id="XMLID_320_" class="st6" d="M357.3,760.2l34,44.9c0.2,0.3,0.1,0.7-0.2,0.9l-123.9,57.2c-0.3,0.1-0.6,0-0.7-0.2&#10;&#9;&#9;&#9;l-31.3-47.2c-0.2-0.3-0.1-0.7,0.2-0.9l121.2-54.9C356.8,759.9,357.1,760,357.3,760.2z" style="fill: rgb(116, 189, 214); stroke: rgb(19, 31, 82); stroke-width: 8; stroke-miterlimit: 10;" transform="matrix(1, 0, 0, 1, 17.213865280151367, -476.0982666015625)"/><path id="XMLID_329_" class="st4" d="M266.8,525.8c-34.7-9.3-49.5,21.8-51.3,26c-0.1,0.2-0.4,0.3-0.6,0.2&#10;&#9;&#9;&#9;c-3.2-1.8-23.1-12.3-39.3-0.1c-15.7,11.8-12.2,25.9-11.2,28.8c0.1,0.3-0.1,0.6-0.4,0.6c-4.4,0.2-31.2,2.6-33.9,35.3&#10;&#9;&#9;&#9;c-0.1,0.6-0.1,1.3-0.1,1.9c-0.8,14,6.3,26.3,17.3,33.2l146.4-100.9C290.1,540.3,282.5,530,266.8,525.8z" style="fill: rgb(44, 248, 255);" transform="matrix(1, 0, 0, 1, 16.213865280151367, -476.0982666015625)"/><path id="XMLID_328_" class="st5" d="M296.5,580.1c-0.3,0-0.5-0.2-0.5-0.5c0.4-2.9,2-16-2.3-28.8L147.2,651.7&#10;&#9;&#9;&#9;c5.8,3.6,12.7,5.7,20.1,5.7h135.8c11.1,0,21.9-4.8,28.9-13.5c6.3-7.8,11.1-19.2,7.9-35C333.5,576.2,301.3,579.5,296.5,580.1z" style="fill: rgb(116, 189, 214);" transform="matrix(1, 0, 0, 1, 16.213865280151367, -476.0982666015625)"/><path id="XMLID_317_" class="st3" d="M303.2,662.9H167.4c-11.9,0-23.3-4.9-31.4-13.4c-8-8.5-12.1-19.6-11.5-31.3&#10;&#9;&#9;&#9;c0-0.7,0.1-1.4,0.1-2c2.5-29.7,23-37.5,33.5-39.6c-0.6-7.1,0.9-19,14.3-29.1c14.9-11.2,32-6.3,40.6-2.6c6-10.5,23-33,55.3-24.4&#10;&#9;&#9;&#9;c32.2,8.6,34.4,39.9,33.7,53.8c12.2-0.2,37.4,3.4,43.4,33.6c2.9,14.9-0.2,28.6-9.1,39.6C328.4,657.3,316.3,662.9,303.2,662.9z&#10;&#9;&#9;&#9; M193.5,551.7c-4.8,0-9.9,1.2-14.5,4.7c-12.5,9.3-10.3,19.8-9.3,22.7c0.6,1.8,0.3,3.7-0.8,5.2c-1.1,1.5-2.8,2.5-4.7,2.5&#10;&#9;&#9;&#9;c-4.4,0.2-26.4,2.4-28.7,30.2c0,0.6-0.1,1.2-0.1,1.7c-0.5,8.6,2.6,16.9,8.5,23.1c6.1,6.4,14.4,10,23.4,10h135.8&#10;&#9;&#9;&#9;c9.8,0,18.7-4.2,24.6-11.4c6.9-8.5,9.1-18.8,6.8-30.5c-5.4-27.4-32.1-25.1-37.4-24.4c-1.8,0.3-3.7-0.4-5-1.7&#10;&#9;&#9;&#9;c-1.3-1.3-1.9-3.2-1.7-5.1c1-6.6,4.4-39.8-25.1-47.7c-29.7-7.9-42.5,17.7-44.8,22.9c-0.7,1.6-2,2.7-3.6,3.3&#10;&#9;&#9;&#9;c-1.6,0.5-3.4,0.4-4.8-0.5C210.9,556.1,202.8,551.7,193.5,551.7z" style="fill: rgb(19, 31, 82);" transform="matrix(1, 0, 0, 1, 16.213865280151367, -476.0982666015625)"/><path id="XMLID_608_" class="st0" d="M266.1,707.3L237,675.6c-0.8-0.9-2.2-0.9-3.1,0l-29.1,31.7c-1.3,1.4-0.3,3.6,1.6,3.6h16.5&#10;&#9;&#9;c0.5,0,0.9,0.4,0.9,0.9v31.8c0,0.5,0.4,0.9,0.9,0.9h21.7c0.5,0,0.9-0.4,0.9-0.9v-31.8c0-0.5,0.4-0.9,0.9-0.9h16.5&#10;&#9;&#9;C266.3,710.8,267.3,708.6,266.1,707.3z" style="fill: rgb(44, 248, 255);" transform="matrix(1, 0, 0, 1, 16.213865280151367, -476.0982666015625)"/>
<path d="M 273.3236389160156 55.17340087890625 L 271.8496398925781 47.80345916748047" style="fill: rgb(116, 189, 214); fill-opacity: 1; stroke: rgb(0, 0, 0); stroke-opacity: 1; stroke-width: 0; paint-order: fill;"/><path d="M 414.8265075683594 184.8843536376953" style="fill: rgb(1, 106, 211); fill-opacity: 1; stroke: rgb(0, 0, 0); stroke-opacity: 1; stroke-width: 0; paint-order: fill;"/><path d="M 176.04042053222656 221.7340545654297" style="fill: rgb(246, 139, 166); fill-opacity: 1; stroke: rgb(0, 0, 0); stroke-opacity: 1; stroke-width: 0; paint-order: fill;"/><path d="M 230.57797241210938 270.37567138671875" style="fill: rgb(1, 106, 211); fill-opacity: 1; stroke: rgb(0, 0, 0); stroke-opacity: 1; stroke-width: 0; paint-order: fill;"/></svg>