<?xml version="1.0" encoding="utf-8"?>
<svg id="master-artboard" viewBox="0 0 2800 1800" version="1.1" xmlns="http://www.w3.org/2000/svg" x="0px" y="0px" width="2800px" height="1800px" enable-background="new 0 0 2800 1800" xmlns:xlink="http://www.w3.org/1999/xlink">
<path d="M 0 0 H 2800 V 1800 H 0 V 0 Z" fill="#43475B" style="fill-opacity: 0;"/>
<g>
	<path fill="#3BBCBC" d="M2212.401,264.317c0-6.627,5.373-12,12-12h5.999c6.627,0,12,5.373,12,12v103.928c0,6.627-5.373,12-12,12&#10;&#9;&#9;h-5.999c-6.627,0-12-5.373-12-12V264.317z" style="fill: rgb(2, 107, 213);"/>
	<path fill="#3BBCBC" d="M2279.365,301.282c6.627,0,12,5.373,12,12v5.999c0,6.627-5.373,12-12,12h-103.928c-6.627,0-12-5.373-12-12&#10;&#9;&#9;v-5.999c0-6.627,5.373-12,12-12H2279.365z" style="fill: rgb(2, 107, 213);"/>
</g>
<g>
	<path fill="#FF795A" d="M2608.403,43.934c0-6.627,5.373-12,12-12h5.999c6.627,0,12,5.373,12,12v103.928c0,6.627-5.373,12-12,12&#10;&#9;&#9;h-5.999c-6.627,0-12-5.373-12-12V43.934z" style="fill: rgb(255, 112, 136);"/>
	<path fill="#FF795A" d="M2675.366,80.898c6.627,0,12,5.373,12,12v5.998c0,6.627-5.373,12-12,12h-103.928c-6.627,0-12-5.373-12-12&#10;&#9;&#9;v-5.998c0-6.627,5.373-12,12-12H2675.366z" style="fill: rgb(255, 112, 136);"/>
</g>
<g>
	<path fill="#FFFFFF" d="M2387.905,85.873c0-6.627,5.373-12,12-12h5.999c6.627,0,12,5.373,12,12v103.928c0,6.627-5.373,12-12,12&#10;&#9;&#9;h-5.999c-6.627,0-12-5.373-12-12V85.873z"/>
	<path fill="#FFFFFF" d="M2454.868,122.837c6.627,0,12,5.373,12,12v5.999c0,6.627-5.373,12-12,12H2350.94c-6.627,0-12-5.373-12-12&#10;&#9;&#9;v-5.999c0-6.627,5.373-12,12-12H2454.868z"/>
</g>
<g>
	<path fill="#FFFFFF" d="M1696.403,219.604c0-6.627,5.373-12,12-12h5.999c6.627,0,12,5.373,12,12v103.928c0,6.627-5.373,12-12,12&#10;&#9;&#9;h-5.999c-6.627,0-12-5.373-12-12V219.604z"/>
	<path fill="#FFFFFF" d="M1763.366,256.569c6.627,0,12,5.373,12,12v5.999c0,6.627-5.373,12-12,12h-103.928c-6.627,0-12-5.373-12-12&#10;&#9;&#9;v-5.999c0-6.627,5.373-12,12-12H1763.366z"/>
</g>
<g>
	<path fill="#FFFFFF" d="M2036.743,72.513c0-3.39,2.748-6.138,6.138-6.138h3.068c3.39,0,6.138,2.748,6.138,6.138v53.156&#10;&#9;&#9;c0,3.39-2.748,6.138-6.138,6.138h-3.068c-3.39,0-6.138-2.748-6.138-6.138V72.513z"/>
	<path fill="#FFFFFF" d="M2070.992,91.42c3.39,0,6.137,2.748,6.137,6.138v3.068c0,3.39-2.748,6.138-6.137,6.138h-53.156&#10;&#9;&#9;c-3.39,0-6.138-2.748-6.138-6.138v-3.068c0-3.39,2.748-6.138,6.138-6.138H2070.992z"/>
</g>
<g>
	<path fill="#3BBCBC" d="M1884.401,282.376c0-3.39,2.748-6.138,6.138-6.138h3.068c3.39,0,6.138,2.748,6.138,6.138v53.156&#10;&#9;&#9;c0,3.39-2.748,6.138-6.138,6.138h-3.068c-3.39,0-6.138-2.748-6.138-6.138V282.376z"/>
	<path fill="#3BBCBC" d="M1918.651,301.282c3.39,0,6.138,2.748,6.138,6.138v3.068c0,3.39-2.748,6.138-6.138,6.138h-53.156&#10;&#9;&#9;c-3.39,0-6.138-2.748-6.138-6.138v-3.068c0-3.39,2.748-6.138,6.138-6.138H1918.651z"/>
</g>
<g>
	<path fill="#FF795A" d="M2086.73,221.76c0-3.39,2.748-6.138,6.138-6.138h3.068c3.39,0,6.138,2.748,6.138,6.138v53.156&#10;&#9;&#9;c0,3.39-2.748,6.138-6.138,6.138h-3.068c-3.39,0-6.138-2.748-6.138-6.138V221.76z" style="fill: rgb(255, 112, 136);"/>
	<path fill="#FF795A" d="M2120.979,240.666c3.39,0,6.138,2.748,6.138,6.138v3.068c0,3.39-2.748,6.138-6.138,6.138h-53.156&#10;&#9;&#9;c-3.39,0-6.138-2.748-6.138-6.138v-3.068c0-3.39,2.748-6.138,6.138-6.138H2120.979z" style="fill: rgb(255, 112, 136);"/>
</g>
<g>
	<path fill="#3BBCBC" d="M1711.422,71.884c2.693-2.693,7.059-2.693,9.751,0l2.437,2.437c2.693,2.693,2.693,7.059,0,9.751&#10;&#9;&#9;l-42.227,42.227c-2.693,2.693-7.059,2.693-9.751,0l-2.437-2.437c-2.693-2.693-2.693-7.059,0-9.751L1711.422,71.884z"/>
	<path fill="#3BBCBC" d="M1723.611,114.111c2.693,2.693,2.693,7.059,0,9.751l-2.437,2.437c-2.693,2.693-7.059,2.693-9.751,0&#10;&#9;&#9;l-42.227-42.227c-2.693-2.693-2.693-7.059,0-9.751l2.437-2.437c2.693-2.693,7.059-2.693,9.751,0L1723.611,114.111z"/>
</g>
<g>
	<path fill="#FF795A" d="M1886.637,46.48c4.891-4.891,12.821-4.891,17.712,0l4.427,4.427c4.891,4.891,4.891,12.821,0,17.712&#10;&#9;&#9;l-76.697,76.697c-4.891,4.891-12.821,4.891-17.712,0l-4.427-4.427c-4.891-4.891-4.891-12.821,0-17.712L1886.637,46.48z" style="fill: rgb(255, 112, 136);"/>
	<path fill="#FF795A" d="M1908.775,123.177c4.891,4.891,4.891,12.821,0,17.712l-4.427,4.427c-4.891,4.891-12.821,4.891-17.712,0&#10;&#9;&#9;l-76.697-76.697c-4.891-4.891-4.891-12.821,0-17.712l4.427-4.427c4.891-4.891,12.821-4.891,17.712,0L1908.775,123.177z" style="fill: rgb(255, 112, 136);"/>
</g>
<g>
	<path fill="#FF795A" d="M2239.681,50.332c4.891-4.891,12.821-4.891,17.712,0l4.427,4.427c4.891,4.891,4.891,12.821,0,17.712&#10;&#9;&#9;l-76.697,76.697c-4.891,4.891-12.821,4.891-17.712,0l-4.427-4.427c-4.891-4.891-4.891-12.821,0-17.712L2239.681,50.332z" style="fill: rgb(255, 112, 136);"/>
	<path fill="#FF795A" d="M2261.819,127.029c4.891,4.891,4.891,12.821,0,17.712l-4.427,4.427c-4.891,4.891-12.821,4.891-17.712,0&#10;&#9;&#9;l-76.697-76.697c-4.891-4.891-4.891-12.821,0-17.712l4.427-4.427c4.891-4.891,12.821-4.891,17.712,0L2261.819,127.029z" style="fill: rgb(255, 112, 136);"/>
</g>
<g>
	<path fill="#FFFFFF" d="M1529.499,43.934c0-6.627,5.373-12,12-12h5.998c6.627,0,12,5.373,12,12v103.928c0,6.627-5.373,12-12,12&#10;&#9;&#9;h-5.998c-6.627,0-12-5.373-12-12V43.934z"/>
	<path fill="#FFFFFF" d="M1596.462,80.898c6.627,0,12,5.373,12,12v5.999c0,6.627-5.373,12-12,12h-103.928c-6.627,0-12-5.373-12-12&#10;&#9;&#9;v-5.999c0-6.627,5.373-12,12-12H1596.462z"/>
</g>
<g>
	<path fill="#FFFFFF" d="M1164.478,72.513c0-3.39,2.748-6.138,6.138-6.138h3.068c3.39,0,6.138,2.748,6.138,6.138v53.156&#10;&#9;&#9;c0,3.39-2.748,6.138-6.138,6.138h-3.068c-3.39,0-6.138-2.748-6.138-6.138V72.513z"/>
	<path fill="#FFFFFF" d="M1198.728,91.42c3.39,0,6.138,2.748,6.138,6.138v3.068c0,3.39-2.748,6.138-6.138,6.138h-53.156&#10;&#9;&#9;c-3.39,0-6.138-2.748-6.138-6.138v-3.068c0-3.39,2.748-6.138,6.138-6.138H1198.728z"/>
</g>
<g>
	<path fill="#FF795A" d="M1367.416,50.332c4.891-4.891,12.821-4.891,17.712,0l4.427,4.427c4.891,4.891,4.891,12.821,0,17.712&#10;&#9;&#9;l-76.697,76.697c-4.891,4.891-12.821,4.891-17.712,0l-4.427-4.427c-4.891-4.891-4.891-12.821,0-17.712L1367.416,50.332z" style="fill: rgb(255, 112, 136);"/>
	<path fill="#FF795A" d="M1389.554,127.029c4.891,4.891,4.891,12.821,0,17.712l-4.427,4.427c-4.891,4.891-12.821,4.891-17.712,0&#10;&#9;&#9;l-76.697-76.697c-4.891-4.891-4.891-12.821,0-17.712l4.427-4.427c4.891-4.891,12.821-4.891,17.712,0L1389.554,127.029z" style="fill: rgb(255, 112, 136);"/>
</g>
<g>
	<path fill="#3BBCBC" d="M2609.969,356.669c-6.627,0-12-5.373-12-12v-5.999c0-6.627,5.373-12,12-12h103.928c6.627,0,12,5.373,12,12&#10;&#9;&#9;v5.999c0,6.627-5.373,12-12,12H2609.969z" style="fill: rgb(2, 107, 213);"/>
	<path fill="#3BBCBC" d="M2646.933,289.706c0-6.627,5.373-12,12-12h5.999c6.627,0,12,5.373,12,12v103.928c0,6.627-5.373,12-12,12&#10;&#9;&#9;h-5.999c-6.627,0-12-5.373-12-12V289.706z" style="fill: rgb(2, 107, 213);"/>
</g>
<g>
	<path fill="#FFFFFF" d="M2378.827,374.305c-3.39,0-6.138-2.748-6.138-6.138v-3.068c0-3.39,2.748-6.138,6.138-6.138h53.156&#10;&#9;&#9;c3.39,0,6.137,2.748,6.137,6.138v3.068c0,3.39-2.748,6.138-6.137,6.138H2378.827z"/>
	<path fill="#FFFFFF" d="M2397.734,340.056c0-3.39,2.748-6.138,6.138-6.138h3.068c3.39,0,6.137,2.748,6.137,6.138v53.156&#10;&#9;&#9;c0,3.39-2.748,6.138-6.137,6.138h-3.068c-3.39,0-6.138-2.748-6.138-6.138V340.056z"/>
</g>
<g>
	<path fill="#FF795A" d="M2515.876,220.182c-2.384-2.384-2.384-6.249,0-8.633l2.158-2.158c2.384-2.384,6.249-2.384,8.633,0&#10;&#9;&#9;l37.382,37.382c2.384,2.384,2.384,6.249,0,8.633l-2.157,2.158c-2.384,2.384-6.249,2.384-8.633,0L2515.876,220.182z" style="fill: rgb(255, 112, 136);"/>
	<path fill="#FF795A" d="M2553.258,209.392c2.384-2.384,6.249-2.384,8.633,0l2.157,2.158c2.384,2.384,2.384,6.249,0,8.633&#10;&#9;&#9;l-37.382,37.382c-2.384,2.384-6.249,2.384-8.633,0l-2.158-2.158c-2.384-2.384-2.384-6.249,0-8.633L2553.258,209.392z" style="fill: rgb(255, 112, 136);"/>
</g>
<g>
	<path fill="#FF795A" d="M2267.279,1307.387c-2.384-2.384-2.384-6.249,0-8.633l2.157-2.158c2.384-2.384,6.249-2.384,8.633,0&#10;&#9;&#9;l37.382,37.382c2.384,2.384,2.384,6.249,0,8.633l-2.158,2.158c-2.384,2.384-6.249,2.384-8.633,0L2267.279,1307.387z" style="fill: rgb(255, 112, 136);"/>
	<path fill="#FF795A" d="M2304.66,1296.596c2.384-2.384,6.249-2.384,8.633,0l2.158,2.158c2.384,2.384,2.384,6.249,0,8.633&#10;&#9;&#9;l-37.382,37.382c-2.384,2.384-6.249,2.384-8.633,0l-2.157-2.158c-2.384-2.384-2.384-6.249,0-8.633L2304.66,1296.596z" style="fill: rgb(255, 112, 136);"/>
</g>
<path d="M 1483.89798 864.903992 A 492.608002 492.608002 0 0 1 991.289978 1357.511993 A 492.608002 492.608002 0 0 1 498.681976 864.903992 A 492.608002 492.608002 0 0 1 991.289978 372.29599 A 492.608002 492.608002 0 0 1 1483.89798 864.903992 Z" fill="#FF795A" transform="matrix(1, 0, 0, 1, 0, 0)" style="fill: rgb(255, 112, 136);"/><path fill="#FFFFFF" d="M1516.632,1361.008c0-62.365-50.557-112.922-112.922-112.922c-4.767,0-9.464,0.299-14.075,0.872&#10;&#9;&#9;&#9;c-5.712-58.776-55.253-104.717-115.528-104.717c-18.571,0-36.119,4.368-51.684,12.122&#10;&#9;&#9;&#9;c-12.909-51.575-59.556-89.777-115.132-89.777c-65.547,0-118.684,53.137-118.684,118.684c0,0.172,0.006,0.344,0.007,0.516&#10;&#9;&#9;&#9;c-12.154-2.893-24.834-4.427-37.873-4.427c-90.004,0-162.966,72.963-162.966,162.966c0,5.632,0.286,11.197,0.844,16.682H1516.632z&#10;&#9;&#9;&#9;" transform="matrix(1, 0, 0, 1, 0, 0)"/><path d="M 704.487976 921.734985 L 758.937988 827.661011 L 1223.640991 827.661011 L 1276.156006 919.197998" fill="#292C38" transform="matrix(1, 0, 0, 1, 0, 0)"/><path d="M 758.937988 504.454987 H 1223.640991 V 1192.207977 H 758.937988 V 504.454987 Z" fill="#292C38" transform="matrix(1, 0, 0, 1, 0, 0)"/><path fill="#43475B" d="M1251.264,617.765c0,15.256-12.367,27.623-27.623,27.623H758.938c-15.256,0-27.623-12.367-27.623-27.623&#10;&#9;&#9;&#9;&#9;v-85.687c0-15.256,12.367-27.623,27.623-27.623h464.703c15.256,0,27.623,12.367,27.623,27.623V617.765z" transform="matrix(1, 0, 0, 1, 0, 0)"/><path fill="#43475B" d="M1251.264,800.038c0,15.256-12.367,27.623-27.623,27.623H758.938c-15.256,0-27.623-12.367-27.623-27.623&#10;&#9;&#9;&#9;&#9;v-85.687c0-15.256,12.367-27.623,27.623-27.623h464.703c15.256,0,27.623,12.367,27.623,27.623V800.038z" transform="matrix(1, 0, 0, 1, 0, 0)"/><g transform="matrix(1, 0, 0, 1, 0, 0)">
				<g>
					<path d="M 848.3060302734375 816.6179809570312 L 848.3060302734375 783.39697265625 L 771.176025390625 783.39697265625 L 771.176025390625 816.6179809570312 L 777.0709838867188 956.6950073242188 L 976.5 956.6950073242188 L 982.39501953125 816.6179809570312 Z" fill="#DBAF4D"/>
					<path d="M 788.905029 790.372009 H 967.179031 V 848.63501 H 788.905029 V 790.372009 Z" fill="#DADADA"/>
					<path d="M 849.89599609375 831.4769897460938 L 849.89599609375 796.6630249023438 L 777.0709838867188 796.6630249023438 L 777.0709838867188 831.4769897460938 L 777.0709838867188 956.6950073242188 L 976.5 956.6950073242188 L 976.5 831.4769897460938 Z" fill="#FFCF57"/>
				</g>
				<g>
					<path d="M 836.9520263671875 840.0579833984375 L 836.9520263671875 806.8369750976562 L 759.822021484375 806.8369750976562 L 759.822021484375 840.0579833984375 L 765.7169799804688 980.135009765625 L 965.14501953125 980.135009765625 L 971.041015625 840.0579833984375 Z" fill="#DBAF4D"/>
					<path d="M 777.551025 813.812012 H 955.825027 V 872.075012 H 777.551025 V 813.812012 Z" fill="#EDEDED"/>
					<path d="M 838.5419921875 854.9169921875 L 838.5419921875 820.1019897460938 L 765.7169799804688 820.1019897460938 L 765.7169799804688 854.9169921875 L 765.7169799804688 980.135009765625 L 965.14501953125 980.135009765625 L 965.14501953125 854.9169921875 Z" fill="#FFCF57"/>
				</g>
				<g>
					<path d="M 825.1619873046875 875.4760131835938 L 825.1619873046875 842.2540283203125 L 748.031005859375 842.2540283203125 L 748.031005859375 875.4760131835938 L 753.927001953125 1015.552001953125 L 953.35498046875 1015.552001953125 L 959.25 875.4760131835938 Z" fill="#DBAF4D"/>
					<path d="M 765.76001 849.22998 H 944.034012 V 907.492981 H 765.76001 V 849.22998 Z" fill="#FFFFFF"/>
					<path d="M 826.7509765625 890.3350219726562 L 826.7509765625 855.52001953125 L 753.927001953125 855.52001953125 L 753.927001953125 890.3350219726562 L 753.927001953125 1015.552001953125 L 953.35498046875 1015.552001953125 L 953.35498046875 890.3350219726562 Z" fill="#FFCF57"/>
				</g>
			</g><g transform="matrix(1, 0, 0, 1, 0, 0)">
				<g>
					<path d="M 1134.27294921875 816.6179809570312 L 1134.27294921875 783.39697265625 L 1211.4029541015625 783.39697265625 L 1211.4029541015625 816.6179809570312 L 1205.508056640625 956.6950073242188 L 1006.0800170898438 956.6950073242188 L 1000.1840209960938 816.6179809570312 Z" fill="#DBAF4D"/>
					<path d="M 1015.400024 790.372009 H 1193.674026 V 848.63501 H 1015.400024 V 790.372009 Z" fill="#DADADA"/>
					<path d="M 1132.6829833984375 831.4769897460938 L 1132.6829833984375 796.6630249023438 L 1205.508056640625 796.6630249023438 L 1205.508056640625 831.4769897460938 L 1205.508056640625 956.6950073242188 L 1006.0800170898438 956.6950073242188 L 1006.0800170898438 831.4769897460938 Z" fill="#FFCF57"/>
				</g>
				<g>
					<path d="M 1145.626953125 840.0579833984375 L 1145.626953125 806.8369750976562 L 1222.7569580078125 806.8369750976562 L 1222.7569580078125 840.0579833984375 L 1216.862060546875 980.135009765625 L 1017.4340209960938 980.135009765625 L 1011.5390014648438 840.0579833984375 Z" fill="#DBAF4D"/>
					<path d="M 1026.754028 813.812012 H 1205.02803 V 872.075012 H 1026.754028 V 813.812012 Z" fill="#EDEDED"/>
					<path d="M 1144.0369873046875 854.9169921875 L 1144.0369873046875 820.1019897460938 L 1216.862060546875 820.1019897460938 L 1216.862060546875 854.9169921875 L 1216.862060546875 980.135009765625 L 1017.4340209960938 980.135009765625 L 1017.4340209960938 854.9169921875 Z" fill="#FFCF57"/>
				</g>
				<g>
					<path d="M 1157.41796875 875.4760131835938 L 1157.41796875 842.2540283203125 L 1234.5479736328125 842.2540283203125 L 1234.5479736328125 875.4760131835938 L 1228.6529541015625 1015.552001953125 L 1029.2249755859375 1015.552001953125 L 1023.3289794921875 875.4760131835938 Z" fill="#DBAF4D"/>
					<path d="M 1038.545044 849.22998 H 1216.819046 V 907.492981 H 1038.545044 V 849.22998 Z" fill="#FFFFFF"/>
					<path d="M 1155.8280029296875 890.3350219726562 L 1155.8280029296875 855.52001953125 L 1228.6529541015625 855.52001953125 L 1228.6529541015625 890.3350219726562 L 1228.6529541015625 1015.552001953125 L 1029.2249755859375 1015.552001953125 L 1029.2249755859375 890.3350219726562 Z" fill="#FFCF57"/>
				</g>
			</g><path fill="#43475B" d="M1283.491,1035.539c0,17.147-13.9,31.047-31.047,31.047H730.136c-17.147,0-31.047-13.9-31.047-31.047&#10;&#9;&#9;&#9;&#9;V939.23c0-17.147,13.9-31.047,31.047-31.047h522.308c17.147,0,31.047,13.9,31.047,31.047V1035.539z" transform="matrix(1, 0, 0, 1, 0, 0)"/><path fill="#43475B" d="M1251.264,1197.73c0,15.256-12.367,27.623-27.623,27.623H758.938c-15.256,0-27.623-12.367-27.623-27.623&#10;&#9;&#9;&#9;&#9;v-85.687c0-15.256,12.367-27.623,27.623-27.623h464.703c15.256,0,27.623,12.367,27.623,27.623V1197.73z" transform="matrix(1, 0, 0, 1, 0, 0)"/><path d="M 1181.573975 529.822998 H 1226.672974 V 574.921997 H 1181.573975 V 529.822998 Z" fill="#3BBCBC" transform="matrix(1, 0, 0, 1, 0, 0)" style="fill: rgb(2, 107, 213);"/><path d="M 1181.573975 712.096008 H 1226.672974 V 757.195007 H 1181.573975 V 712.096008 Z" fill="#3BBCBC" transform="matrix(1, 0, 0, 1, 0, 0)" style="fill: rgb(2, 107, 213);"/><path d="M 1205.161987 936.695984 H 1255.850986 V 987.384983 H 1205.161987 V 936.695984 Z" fill="#3BBCBC" transform="matrix(1, 0, 0, 1, 0, 0)" style="fill: rgb(2, 107, 213);"/><path d="M 1181.573975 1109.787964 H 1226.672974 V 1154.886963 H 1181.573975 V 1109.787964 Z" fill="#3BBCBC" transform="matrix(1, 0, 0, 1, 0, 0)" style="fill: rgb(2, 107, 213);"/><path fill="#FFFFFF" d="M1042.843,1361.008c0-49.442-40.081-89.523-89.523-89.523c-3.779,0-7.503,0.237-11.159,0.692&#10;&#9;&#9;&#9;c-4.529-46.597-43.804-83.019-91.589-83.019c-14.723,0-28.635,3.463-40.975,9.61c-10.234-40.888-47.215-71.174-91.275-71.174&#10;&#9;&#9;&#9;c-51.965,0-94.092,42.126-94.092,94.092c0,0.137,0.005,0.272,0.005,0.409c-9.635-2.293-19.688-3.51-30.025-3.51&#10;&#9;&#9;&#9;c-71.354,0-129.198,57.844-129.198,129.198c0,4.465,0.227,8.877,0.669,13.225H1042.843z" transform="matrix(1, 0, 0, 1, 0, 0)"/><path fill="#FFFFFF" d="M853.436,566.803c0-26.414-21.412-47.826-47.826-47.826c-2.019,0-4.008,0.127-5.961,0.369&#10;&#9;&#9;&#9;c-2.419-24.894-23.401-44.351-48.93-44.351c-7.865,0-15.297,1.85-21.89,5.134c-5.467-21.844-25.224-38.023-48.762-38.023&#10;&#9;&#9;&#9;c-27.762,0-50.267,22.505-50.267,50.267c0,0.073,0.003,0.146,0.003,0.219c-5.148-1.225-10.518-1.875-16.04-1.875&#10;&#9;&#9;&#9;c-38.12,0-69.022,30.902-69.022,69.022c0,2.385,0.121,4.742,0.357,7.065H853.436z" transform="matrix(1, 0, 0, 1, 0, 0)"/><g transform="matrix(1, 0, 0, 1, 0, 0)">
			<path fill="#FF795A" d="M1987.792,509.129c0,5.275-4.277,9.552-9.552,9.552h-503.817c-5.276,0-9.552-4.277-9.552-9.552V198.782&#10;&#9;&#9;&#9;&#9;c0-5.275,4.277-9.552,9.552-9.552h503.817c5.275,0,9.552,4.277,9.552,9.552V509.129z" style="fill: rgb(255, 112, 136);"/>
			<path fill="#3BBCBC" d="M2069.464,676.721c0,6.923-5.613,12.536-12.536,12.536h-661.194c-6.923,0-12.536-5.612-12.536-12.536&#10;&#9;&#9;&#9;&#9;v-38.274c0-6.923,5.612-12.536,12.536-12.536h661.194c6.923,0,12.536,5.612,12.536,12.536V676.721z" style="fill: rgb(2, 107, 213);"/>
			<path fill="#FF795A" d="M2067.392,630.885c0,2.216-4.276,4.013-9.552,4.013h-663.018c-5.275,0-9.552-1.797-9.552-4.013&#10;&#9;&#9;&#9;&#9;l79.6-130.385c0-2.216,4.277-4.013,9.552-4.013h503.817c5.275,0,9.552,1.797,9.552,4.013L2067.392,630.885z" style="fill: rgb(255, 112, 136);"/>
			<g>
				<g>
					<path d="M 2020.2509765625 602.9080200195312 L 1980.1199951171875 602.9080200195312 L 1990.677001953125 623.5089721679688 L 2032.550048828125 623.5089721679688 Z" fill="#3BBCBC" style="fill: rgb(2, 107, 213);"/>
					<path d="M 1768.5269775390625 538.9439697265625 L 1734.2039794921875 538.9439697265625 L 1734.06494140625 559.5449829101562 L 1770.1099853515625 559.5449829101562 Z" fill="#3BBCBC" style="fill: rgb(2, 107, 213);"/>
					<path d="M 1795.3590087890625 602.9080200195312 L 1773.4429931640625 602.9080200195312 L 1733.77197265625 602.9080200195312 L 1722.198974609375 602.9080200195312 L 1722.198974609375 623.5089721679688 L 1733.633056640625 623.5089721679688 L 1775.0260009765625 623.5089721679688 L 1797.89404296875 623.5089721679688 L 1839.2869873046875 623.5089721679688 L 1835.030029296875 602.9080200195312 Z" fill="#3BBCBC" style="fill: rgb(2, 107, 213);"/>
					<path d="M 1766.0689697265625 506.9620056152344 L 1734.4200439453125 506.9620056152344 L 1734.281005859375 527.56298828125 L 1767.6519775390625 527.56298828125 Z" fill="#3BBCBC" style="fill: rgb(2, 107, 213);"/>
					<path d="M 1786.0889892578125 527.56298828125 L 1819.4599609375 527.56298828125 L 1815.2030029296875 506.9620056152344 L 1783.553955078125 506.9620056152344 Z" fill="#3BBCBC" style="fill: rgb(2, 107, 213);"/>
					<path d="M 1812.8509521484375 495.58099365234375 L 1808.593994140625 474.9800109863281 L 1779.6190185546875 474.9800109863281 L 1782.154052734375 495.58099365234375 Z" fill="#3BBCBC" style="fill: rgb(2, 107, 213);"/>
					<path d="M 1763.6109619140625 474.9800109863281 L 1734.636962890625 474.9800109863281 L 1734.4969482421875 495.58099365234375 L 1765.1949462890625 495.58099365234375 Z" fill="#3BBCBC" style="fill: rgb(2, 107, 213);"/>
					<path d="M 1770.9849853515625 570.926025390625 L 1733.988037109375 570.926025390625 L 1733.8489990234375 591.5269775390625 L 1772.5679931640625 591.5269775390625 Z" fill="#3BBCBC" style="fill: rgb(2, 107, 213);"/>
					<path d="M 2001.157958984375 570.926025390625 L 1963.7320556640625 570.926025390625 L 1974.2879638671875 591.5269775390625 L 2013.45703125 591.5269775390625 Z" fill="#3BBCBC" style="fill: rgb(2, 107, 213);"/>
					<path d="M 1918.532958984375 602.9080200195312 L 1926.416015625 623.5089721679688 L 1967.8089599609375 623.5089721679688 L 1958.2039794921875 602.9080200195312 Z" fill="#3BBCBC" style="fill: rgb(2, 107, 213);"/>
					<path d="M 1875.0970458984375 538.9439697265625 L 1840.7740478515625 538.9439697265625 L 1845.9830322265625 559.5449829101562 L 1882.0279541015625 559.5449829101562 Z" fill="#3BBCBC" style="fill: rgb(2, 107, 213);"/>
					<path d="M 1943.29296875 570.926025390625 L 1906.2960205078125 570.926025390625 L 1914.178955078125 591.5269775390625 L 1952.89794921875 591.5269775390625 Z" fill="#3BBCBC" style="fill: rgb(2, 107, 213);"/>
					<path d="M 1885.8570556640625 570.926025390625 L 1848.8599853515625 570.926025390625 L 1854.0689697265625 591.5269775390625 L 1892.7879638671875 591.5269775390625 Z" fill="#3BBCBC" style="fill: rgb(2, 107, 213);"/>
					<path d="M 1856.946044921875 602.9080200195312 L 1862.155029296875 623.5089721679688 L 1903.5479736328125 623.5089721679688 L 1896.616943359375 602.9080200195312 Z" fill="#3BBCBC" style="fill: rgb(2, 107, 213);"/>
					<path d="M 1956.177001953125 495.58099365234375 L 1943.8780517578125 474.9800109863281 L 1914.5670166015625 474.9800109863281 L 1925.1240234375 495.58099365234375 Z" fill="#3BBCBC" style="fill: rgb(2, 107, 213);"/>
					<path d="M 1889.7039794921875 527.56298828125 L 1923.074951171875 527.56298828125 L 1913.470947265625 506.9620056152344 L 1881.822021484375 506.9620056152344 Z" fill="#3BBCBC" style="fill: rgb(2, 107, 213);"/>
					<path d="M 1894.0589599609375 538.9439697265625 L 1901.9410400390625 559.5449829101562 L 1937.9859619140625 559.5449829101562 L 1928.3819580078125 538.9439697265625 Z" fill="#3BBCBC" style="fill: rgb(2, 107, 213);"/>
					<path d="M 1941.511962890625 527.56298828125 L 1975.27001953125 527.56298828125 L 1962.9720458984375 506.9620056152344 L 1930.9549560546875 506.9620056152344 Z" fill="#3BBCBC" style="fill: rgb(2, 107, 213);"/>
					<path d="M 1957.9000244140625 559.5449829101562 L 1994.363037109375 559.5449829101562 L 1982.06494140625 538.9439697265625 L 1947.343994140625 538.9439697265625 Z" fill="#3BBCBC" style="fill: rgb(2, 107, 213);"/>
					<path d="M 1860.508056640625 495.58099365234375 L 1853.5770263671875 474.9800109863281 L 1824.60205078125 474.9800109863281 L 1829.81005859375 495.58099365234375 Z" fill="#3BBCBC" style="fill: rgb(2, 107, 213);"/>
					<path d="M 1837.89599609375 527.56298828125 L 1871.2679443359375 527.56298828125 L 1864.3370361328125 506.9620056152344 L 1832.68798828125 506.9620056152344 Z" fill="#3BBCBC" style="fill: rgb(2, 107, 213);"/>
					<path d="M 1791.4239501953125 570.926025390625 L 1793.958984375 591.5269775390625 L 1832.677978515625 591.5269775390625 L 1828.4210205078125 570.926025390625 Z" fill="#3BBCBC" style="fill: rgb(2, 107, 213);"/>
					<path d="M 1908.1639404296875 495.58099365234375 L 1898.5589599609375 474.9800109863281 L 1869.5849609375 474.9800109863281 L 1877.467041015625 495.58099365234375 Z" fill="#3BBCBC" style="fill: rgb(2, 107, 213);"/>
					<path d="M 1790.0240478515625 559.5449829101562 L 1826.0689697265625 559.5449829101562 L 1821.81201171875 538.9439697265625 L 1787.489013671875 538.9439697265625 Z" fill="#3BBCBC" style="fill: rgb(2, 107, 213);"/>
				</g>
				<g>
					<path d="M 1432.4110107421875 602.9080200195312 L 1472.5419921875 602.9080200195312 L 1461.9859619140625 623.5089721679688 L 1420.112060546875 623.5089721679688 Z" fill="#3BBCBC" style="fill: rgb(2, 107, 213);"/>
					<path d="M 1684.135009765625 538.9439697265625 L 1718.4580078125 538.9439697265625 L 1718.5970458984375 559.5449829101562 L 1682.552001953125 559.5449829101562 Z" fill="#3BBCBC" style="fill: rgb(2, 107, 213);"/>
					<path d="M 1657.302978515625 602.9080200195312 L 1679.219970703125 602.9080200195312 L 1718.8900146484375 602.9080200195312 L 1730.4639892578125 602.9080200195312 L 1730.4639892578125 623.5089721679688 L 1719.030029296875 623.5089721679688 L 1677.635986328125 623.5089721679688 L 1654.76904296875 623.5089721679688 L 1613.375 623.5089721679688 L 1617.633056640625 602.9080200195312 Z" fill="#3BBCBC" style="fill: rgb(2, 107, 213);"/>
					<path d="M 1686.593017578125 506.9620056152344 L 1718.241943359375 506.9620056152344 L 1718.3809814453125 527.56298828125 L 1685.010009765625 527.56298828125 Z" fill="#3BBCBC" style="fill: rgb(2, 107, 213);"/>
					<path d="M 1666.573974609375 527.56298828125 L 1633.2020263671875 527.56298828125 L 1637.458984375 506.9620056152344 L 1669.1080322265625 506.9620056152344 Z" fill="#3BBCBC" style="fill: rgb(2, 107, 213);"/>
					<path d="M 1639.81103515625 495.58099365234375 L 1644.0679931640625 474.9800109863281 L 1673.04296875 474.9800109863281 L 1670.509033203125 495.58099365234375 Z" fill="#3BBCBC" style="fill: rgb(2, 107, 213);"/>
					<path d="M 1689.051025390625 474.9800109863281 L 1718.0260009765625 474.9800109863281 L 1718.1650390625 495.58099365234375 L 1687.468017578125 495.58099365234375 Z" fill="#3BBCBC" style="fill: rgb(2, 107, 213);"/>
					<path d="M 1681.677978515625 570.926025390625 L 1718.6739501953125 570.926025390625 L 1718.81298828125 591.5269775390625 L 1680.093994140625 591.5269775390625 Z" fill="#3BBCBC" style="fill: rgb(2, 107, 213);"/>
					<path d="M 1451.5050048828125 570.926025390625 L 1488.9300537109375 570.926025390625 L 1478.3740234375 591.5269775390625 L 1439.2060546875 591.5269775390625 Z" fill="#3BBCBC" style="fill: rgb(2, 107, 213);"/>
					<path d="M 1534.1290283203125 602.9080200195312 L 1526.2469482421875 623.5089721679688 L 1484.85400390625 623.5089721679688 L 1494.458984375 602.9080200195312 Z" fill="#3BBCBC" style="fill: rgb(2, 107, 213);"/>
					<path d="M 1577.5660400390625 538.9439697265625 L 1611.887939453125 538.9439697265625 L 1606.6800537109375 559.5449829101562 L 1570.635009765625 559.5449829101562 Z" fill="#3BBCBC" style="fill: rgb(2, 107, 213);"/>
					<path d="M 1509.3699951171875 570.926025390625 L 1546.365966796875 570.926025390625 L 1538.4840087890625 591.5269775390625 L 1499.7650146484375 591.5269775390625 Z" fill="#3BBCBC" style="fill: rgb(2, 107, 213);"/>
					<path d="M 1566.8060302734375 570.926025390625 L 1603.802001953125 570.926025390625 L 1598.593994140625 591.5269775390625 L 1559.875 591.5269775390625 Z" fill="#3BBCBC" style="fill: rgb(2, 107, 213);"/>
					<path d="M 1595.7159423828125 602.9080200195312 L 1590.5069580078125 623.5089721679688 L 1549.114990234375 623.5089721679688 L 1556.0460205078125 602.9080200195312 Z" fill="#3BBCBC" style="fill: rgb(2, 107, 213);"/>
					<path d="M 1496.4849853515625 495.58099365234375 L 1508.7840576171875 474.9800109863281 L 1538.094970703125 474.9800109863281 L 1527.5389404296875 495.58099365234375 Z" fill="#3BBCBC" style="fill: rgb(2, 107, 213);"/>
					<path d="M 1562.9580078125 527.56298828125 L 1529.5870361328125 527.56298828125 L 1539.1920166015625 506.9620056152344 L 1570.8409423828125 506.9620056152344 Z" fill="#3BBCBC" style="fill: rgb(2, 107, 213);"/>
					<path d="M 1558.60400390625 538.9439697265625 L 1550.720947265625 559.5449829101562 L 1514.676025390625 559.5449829101562 L 1524.281005859375 538.9439697265625 Z" fill="#3BBCBC" style="fill: rgb(2, 107, 213);"/>
					<path d="M 1511.1510009765625 527.56298828125 L 1477.3919677734375 527.56298828125 L 1489.6910400390625 506.9620056152344 L 1521.70703125 506.9620056152344 Z" fill="#3BBCBC" style="fill: rgb(2, 107, 213);"/>
					<path d="M 1494.761962890625 559.5449829101562 L 1458.2989501953125 559.5449829101562 L 1470.5980224609375 538.9439697265625 L 1505.3189697265625 538.9439697265625 Z" fill="#3BBCBC" style="fill: rgb(2, 107, 213);"/>
					<path d="M 1592.155029296875 495.58099365234375 L 1599.0860595703125 474.9800109863281 L 1628.06103515625 474.9800109863281 L 1622.85205078125 495.58099365234375 Z" fill="#3BBCBC" style="fill: rgb(2, 107, 213);"/>
					<path d="M 1614.7659912109375 527.56298828125 L 1581.39501953125 527.56298828125 L 1588.3260498046875 506.9620056152344 L 1619.9749755859375 506.9620056152344 Z" fill="#3BBCBC" style="fill: rgb(2, 107, 213);"/>
					<path d="M 1661.238037109375 570.926025390625 L 1658.7030029296875 591.5269775390625 L 1619.9840087890625 591.5269775390625 L 1624.241943359375 570.926025390625 Z" fill="#3BBCBC" style="fill: rgb(2, 107, 213);"/>
					<path d="M 1544.498046875 495.58099365234375 L 1554.10302734375 474.9800109863281 L 1583.0780029296875 474.9800109863281 L 1575.196044921875 495.58099365234375 Z" fill="#3BBCBC" style="fill: rgb(2, 107, 213);"/>
					<path d="M 1662.6390380859375 559.5449829101562 L 1626.593994140625 559.5449829101562 L 1630.8499755859375 538.9439697265625 L 1665.1729736328125 538.9439697265625 Z" fill="#3BBCBC" style="fill: rgb(2, 107, 213);"/>
				</g>
			</g>
			<path d="M 1488.109985 211.423996 H 1964.551971 V 496.486984 H 1488.109985 V 211.423996 Z" fill="#292C38"/>
			<g>
				<defs>
					<path d="M 1488.109985 211.423996 H 1964.551971 V 496.486984 H 1488.109985 V 211.423996 Z" id="SVGID_1_"/>
				</defs>
				<clipPath id="SVGID_2_">
					<use overflow="visible" xlink:href="#SVGID_1_"/>
				</clipPath>
				<g opacity="0.1" clip-path="url(#SVGID_2_)">
					
						<path d="M 1654.35498 22.082001 H 1676.642981 V 633.412994 H 1654.35498 V 22.082001 Z" transform="matrix(0.7071 0.7071 -0.7071 0.7071 719.5656 -1081.6904)" fill="#FFFFFF"/>
					
						<path d="M 1784.284058 152.011002 H 1806.572058 V 763.341995 H 1784.284058 V 152.011002 Z" transform="matrix(0.7071 0.7071 -0.7071 0.7071 849.4953 -1135.5092)" fill="#FFFFFF"/>
					
						<path d="M 1697.270996 101.621002 H 1780.068993 V 700.215973 H 1697.270996 V 101.621002 Z" transform="matrix(0.7071 0.7071 -0.7071 0.7071 792.7374 -1111.9991)" fill="#FFFFFF"/>
				</g>
			</g>
		</g><g transform="matrix(1, 0, 0, 1, 0, 0)">
			<path d="M 1913.421997 1053.615967 H 2151.679001 V 1202.826965 H 1913.421997 V 1053.615967 Z" fill="#FF795A" style="fill: rgb(255, 112, 136);"/>
			<path fill="#3BBCBC" d="M2334.99,1142.954c0,6.102-4.947,11.049-11.049,11.049H1741.16c-6.102,0-11.049-4.947-11.049-11.049&#10;&#9;&#9;&#9;&#9;V770.1c0-6.102,4.947-11.049,11.049-11.049h582.781c6.102,0,11.049,4.947,11.049,11.049V1142.954z" style="fill: rgb(2, 107, 213);"/>
			<path d="M 1756.993042 784.723999 H 2308.108032 V 1128.329987 H 1756.993042 V 784.723999 Z" fill="#292C38"/>
			<defs>
					<path d="M 1756.993042 784.723999 H 2308.108032 V 1128.329987 H 1756.993042 V 784.723999 Z" id="SVGID_3_"/>
				</defs><clipPath id="SVGID_4_">
					<use overflow="visible" xlink:href="#SVGID_3_"/>
				</clipPath><g opacity="0.1" clip-path="url(#SVGID_4_)" transform="matrix(1, 0, 0, 1, 0, 0)">
					<path d="M 1721.2850341796875 1192.27294921875 L 1703.0550537109375 1174.04296875 L 2203.08203125 660.1500244140625 L 2221.31201171875 678.3800048828125 Z" fill="#FFFFFF"/>
					<path d="M 1871.5780029296875 1342.5660400390625 L 1853.3480224609375 1324.3360595703125 L 2353.375 810.4439697265625 L 2371.60498046875 828.6740112304688 Z" fill="#FFFFFF"/>
					<path d="M 1835.8800048828125 1296.449951171875 L 1768.156982421875 1228.72802734375 L 2257.76708984375 725.2529907226562 L 2325.489990234375 792.9749755859375 Z" fill="#FFFFFF"/>
				</g>
			<path d="M 1878.432983 1189.937012 H 2186.667969 V 1215.718012 H 1878.432983 V 1189.937012 Z" fill="#3BBCBC" style="fill: rgb(2, 107, 213);"/>
		<path d="M 1822.658935546875 2069.942138671875 L 1633.872802734375 2173.6416015625 L 453.2947998046875 2165.664794921875" style="fill: rgb(2, 107, 213); fill-opacity: 1; stroke: rgb(0, 0, 0); stroke-opacity: 1; stroke-width: 0; paint-order: fill;"/></g><path fill="#FF795A" d="M1835.283,1244.3c4.792,0,8.676,3.884,8.676,8.676v349.119c0,4.792-3.884,8.676-8.676,8.676h-210.345&#10;&#9;&#9;&#9;&#9;&#9;c-4.792,0-8.676-3.884-8.676-8.676v-349.119c0-4.792,3.884-8.676,8.676-8.676H1835.283z" style="fill: rgb(255, 112, 136);" transform="matrix(1, 0, 0, 1, 0, 0)"/><path d="M 1636.421021 1265.407959 H 1823.801025 V 1589.662964 H 1636.421021 V 1265.407959 Z" fill="#292C38" transform="matrix(1, 0, 0, 1, 0, 0)"/><defs>
						<path d="M 1636.421021 1265.407959 H 1823.801025 V 1589.662964 H 1636.421021 V 1265.407959 Z" id="SVGID_5_"/>
					</defs><clipPath id="SVGID_6_">
						<use overflow="visible" xlink:href="#SVGID_5_"/>
					</clipPath><g opacity="0.1" clip-path="url(#SVGID_6_)" transform="matrix(1, 0, 0, 1, 0, 0)">
						<path d="M 1874.008056640625 1617.7010498046875 L 1859.6939697265625 1632.0150146484375 L 1538.60498046875 1347.875 L 1552.9200439453125 1333.56005859375 Z" fill="#FFFFFF"/>
						<path d="M 1992.01904296875 1499.68994140625 L 1977.7039794921875 1514.0040283203125 L 1656.615966796875 1229.864013671875 L 1670.9300537109375 1215.550048828125 Z" fill="#FFFFFF"/>
						<path d="M 1955.8079833984375 1527.720947265625 L 1902.6319580078125 1580.89697265625 L 1589.7239990234375 1304.93603515625 L 1642.9000244140625 1251.760009765625 Z" fill="#FFFFFF"/>
					</g><path d="M 1629.984985 1545.704956 H 1830.234985 V 1601.364956 H 1629.984985 V 1545.704956 Z" fill="#FF795A" style="fill: rgb(255, 112, 136);" transform="matrix(1, 0, 0, 1, 0, 0)"/><path d="M 1746.237963 1573.535034 A 16.127001 16.127001 0 0 1 1730.110962 1589.662035 A 16.127001 16.127001 0 0 1 1713.983961 1573.535034 A 16.127001 16.127001 0 0 1 1730.110962 1557.408033 A 16.127001 16.127001 0 0 1 1746.237963 1573.535034 Z" fill="#3BBCBC" transform="matrix(1, 0, 0, 1, 0, 0)" style="fill: rgb(2, 107, 213);"/><g transform="matrix(1, 0, 0, 1, 0, 0)">
		<g>
			<path fill="#FFFFFF" d="M1377.823,241.364v-14.886c-29.54,0-58.2,5.787-85.185,17.201c-26.06,11.023-49.463,26.801-69.558,46.896&#10;&#9;&#9;&#9;&#9;c-20.095,20.095-35.873,43.498-46.895,69.558c-11.413,26.984-17.2,55.644-17.2,85.183h14.885&#10;&#9;&#9;&#9;&#9;C1173.871,332.857,1265.364,241.364,1377.823,241.364z"/>
		</g>
		<g>
			<path d="M 1196.6510009765625 430.9570007324219 L 1185.239013671875 421.3999938964844 L 1166.1500244140625 444.1940002441406 L 1144.8050537109375 421.1239929199219 L 1133.8790283203125 431.2330017089844 L 1166.70703125 466.7130126953125 Z" fill="#FFFFFF"/>
		</g>
	</g><g transform="matrix(1, 0, 0, 1, 0, 0)">
		<g>
			<path fill="#FFFFFF" d="M1610.55,1206.393h14.885c0-29.54-5.787-58.2-17.201-85.185c-11.023-26.06-26.801-49.463-46.896-69.558&#10;&#9;&#9;&#9;&#9;c-20.095-20.095-43.498-35.873-69.558-46.895c-26.984-11.413-55.644-17.2-85.183-17.2v14.886&#10;&#9;&#9;&#9;&#9;C1519.058,1002.44,1610.55,1093.933,1610.55,1206.393z"/>
		</g>
		<g>
			<path d="M 1420.9580078125 1025.219970703125 L 1430.5150146484375 1013.8079833984375 L 1407.720947265625 994.718994140625 L 1430.791015625 973.3740234375 L 1420.6820068359375 962.447998046875 L 1385.2020263671875 995.2760009765625 Z" fill="#FFFFFF"/>
		</g>
	</g><g transform="matrix(1, 0, 0, 1, 0, 0)">
		<g>
			<path fill="#FFFFFF" d="M1910.578,1532.767v14.886c29.54,0,58.2-5.787,85.185-17.201c26.06-11.023,49.463-26.801,69.558-46.896&#10;&#9;&#9;&#9;&#9;c20.095-20.095,35.873-43.498,46.895-69.558c11.413-26.984,17.2-55.643,17.2-85.182h-14.885&#10;&#9;&#9;&#9;&#9;C2114.53,1441.275,2023.037,1532.767,1910.578,1532.767z"/>
		</g>
		<g>
			<path d="M 2091.75 1343.1739501953125 L 2103.162109375 1352.7320556640625 L 2122.2509765625 1329.93798828125 L 2143.595947265625 1353.008056640625 L 2154.52197265625 1342.89794921875 L 2121.694091796875 1307.41796875 Z" fill="#FFFFFF"/>
		</g>
	</g><g transform="matrix(1, 0, 0, 1, 0, 0)">
		<g>
			<path fill="#FFFFFF" d="M2275.812,660.916h14.886c0-29.54-5.787-58.2-17.201-85.185c-11.023-26.06-26.801-49.463-46.896-69.558&#10;&#9;&#9;&#9;&#9;c-20.095-20.095-43.498-35.873-69.558-46.895c-26.984-11.413-55.643-17.2-85.182-17.2v14.886&#10;&#9;&#9;&#9;&#9;C2184.32,456.964,2275.812,548.457,2275.812,660.916z"/>
		</g>
		<g>
			<path d="M 2086.219970703125 479.7439880371094 L 2095.777099609375 468.3320007324219 L 2072.98291015625 449.2430114746094 L 2096.052978515625 427.89801025390625 L 2085.944091796875 416.97198486328125 L 2050.462890625 449.79998779296875 Z" fill="#FFFFFF"/>
		</g>
	</g><g transform="matrix(1, 0, 0, 1, 0, 0)">
		<g>
			<path fill="#FFFFFF" d="M1665.976,808.265l10.526,10.526c-20.888,20.888-45.246,37.062-72.397,48.072&#10;&#9;&#9;&#9;&#9;c-26.221,10.633-53.926,16.024-82.345,16.024c-28.419,0-56.124-5.392-82.345-16.025c-27.151-11.01-51.508-27.184-72.396-48.071&#10;&#9;&#9;&#9;&#9;l10.526-10.526C1457.065,887.786,1586.455,887.786,1665.976,808.265z"/>
		</g>
		<g>
			<path d="M 1403.8060302734375 802.3109741210938 L 1402.4940185546875 817.1380004882812 L 1372.8790283203125 814.5189819335938 L 1374.0980224609375 845.9249877929688 L 1359.2239990234375 846.5020141601562 L 1357.3489990234375 798.2009887695312 Z" fill="#FFFFFF"/>
		</g>
	</g>
<g>
	<path fill="#3BBCBC" d="M394.29,1029.832c0,6.627-5.373,12-12,12h-5.999c-6.627,0-12-5.373-12-12V925.904c0-6.627,5.373-12,12-12&#10;&#9;&#9;h5.999c6.627,0,12,5.373,12,12V1029.832z" style="fill: rgb(2, 107, 213);"/>
	<path fill="#3BBCBC" d="M327.327,992.867c-6.627,0-12-5.373-12-12v-5.998c0-6.627,5.373-12,12-12h103.928c6.627,0,12,5.373,12,12&#10;&#9;&#9;v5.998c0,6.627-5.373,12-12,12H327.327z" style="fill: rgb(2, 107, 213);"/>
</g>
<g>
	<path fill="#3BBCBC" d="M571,173.25c0,6.627-5.373,12-12,12h-5.998c-6.627,0-12-5.373-12-12V69.322c0-6.627,5.373-12,12-12H559&#10;&#9;&#9;c6.627,0,12,5.373,12,12V173.25z" style="fill: rgb(2, 107, 213);"/>
	<path fill="#3BBCBC" d="M504.037,136.285c-6.627,0-12-5.373-12-12v-5.999c0-6.627,5.373-12,12-12h103.928c6.627,0,12,5.373,12,12&#10;&#9;&#9;v5.999c0,6.627-5.373,12-12,12H504.037z" style="fill: rgb(2, 107, 213);"/>
</g>
<g>
	<path fill="#FF795A" d="M354.999,1357.647c0,6.627-5.373,12-12,12H337c-6.627,0-12-5.373-12-12v-103.928c0-6.627,5.373-12,12-12&#10;&#9;&#9;h5.999c6.627,0,12,5.373,12,12V1357.647z" style="fill: rgb(255, 112, 136);"/>
	<path fill="#FF795A" d="M288.035,1320.682c-6.627,0-12-5.373-12-12v-5.999c0-6.627,5.373-12,12-12h103.928c6.627,0,12,5.373,12,12&#10;&#9;&#9;v5.999c0,6.627-5.373,12-12,12H288.035z" style="fill: rgb(255, 112, 136);"/>
</g>
<g>
	<path fill="#FF795A" d="M174.999,393.633c0,6.627-5.373,12-12,12H157c-6.627,0-12-5.373-12-12V289.706c0-6.627,5.373-12,12-12&#10;&#9;&#9;h5.999c6.627,0,12,5.373,12,12V393.633z" style="fill: rgb(255, 112, 136);"/>
	<path fill="#FF795A" d="M108.035,356.669c-6.627,0-12-5.373-12-12v-5.999c0-6.627,5.373-12,12-12h103.928c6.627,0,12,5.373,12,12&#10;&#9;&#9;v5.999c0,6.627-5.373,12-12,12H108.035z" style="fill: rgb(255, 112, 136);"/>
</g>
<g>
	<path fill="#FFFFFF" d="M395.496,351.694c0,6.627-5.373,12-12,12h-5.998c-6.627,0-12-5.373-12-12V247.767c0-6.627,5.373-12,12-12&#10;&#9;&#9;h5.998c6.627,0,12,5.373,12,12V351.694z"/>
	<path fill="#FFFFFF" d="M328.533,314.73c-6.627,0-12-5.373-12-12v-5.998c0-6.627,5.373-12,12-12h103.928c6.627,0,12,5.373,12,12&#10;&#9;&#9;v5.998c0,6.627-5.373,12-12,12H328.533z"/>
</g>
<g>
	<path fill="#3BBCBC" d="M466.546,596.076c0,6.627-5.373,12-12,12h-5.999c-6.627,0-12-5.373-12-12V492.149c0-6.627,5.373-12,12-12&#10;&#9;&#9;h5.999c6.627,0,12,5.373,12,12V596.076z" style="fill: rgb(2, 107, 213);"/>
	<path fill="#3BBCBC" d="M399.582,559.112c-6.627,0-12-5.373-12-12v-5.999c0-6.627,5.373-12,12-12H503.51c6.627,0,12,5.373,12,12&#10;&#9;&#9;v5.999c0,6.627-5.373,12-12,12H399.582z" style="fill: rgb(2, 107, 213);"/>
</g>
<g>
	<path fill="#FFFFFF" d="M1086.999,217.963c0,6.627-5.373,12-12,12H1069c-6.627,0-12-5.373-12-12V114.035c0-6.627,5.373-12,12-12&#10;&#9;&#9;h5.999c6.627,0,12,5.373,12,12V217.963z"/>
	<path fill="#FFFFFF" d="M1020.035,180.998c-6.627,0-12-5.373-12-12V163c0-6.627,5.373-12,12-12h103.928c6.627,0,12,5.373,12,12&#10;&#9;&#9;v5.998c0,6.627-5.373,12-12,12H1020.035z"/>
</g>
<g>
	<path fill="#FFFFFF" d="M486.972,1114.883c0,3.885-3.15,7.035-7.035,7.035h-3.517c-3.885,0-7.035-3.15-7.035-7.035v-60.927&#10;&#9;&#9;c0-3.885,3.15-7.035,7.035-7.035h3.517c3.885,0,7.035,3.15,7.035,7.035V1114.883z"/>
	<path fill="#FFFFFF" d="M447.716,1093.213c-3.885,0-7.035-3.15-7.035-7.035v-3.517c0-3.885,3.15-7.035,7.035-7.035h60.927&#10;&#9;&#9;c3.885,0,7.035,3.15,7.035,7.035v3.517c0,3.885-3.15,7.035-7.035,7.035H447.716z"/>
</g>
<g>
	<path fill="#FF795A" d="M165,623.092c0,3.885-3.15,7.035-7.035,7.035h-3.517c-3.885,0-7.035-3.15-7.035-7.035v-60.927&#10;&#9;&#9;c0-3.885,3.15-7.035,7.035-7.035h3.517c3.885,0,7.035,3.15,7.035,7.035V623.092z" style="fill: rgb(255, 112, 136);"/>
	<path fill="#FF795A" d="M125.744,601.422c-3.885,0-7.035-3.15-7.035-7.035v-3.517c0-3.885,3.15-7.035,7.035-7.035h60.927&#10;&#9;&#9;c3.885,0,7.035,3.15,7.035,7.035v3.517c0,3.885-3.15,7.035-7.035,7.035H125.744z" style="fill: rgb(255, 112, 136);"/>
</g>
<g>
	<path fill="#FFFFFF" d="M435.884,882.098c0,3.39-2.748,6.138-6.138,6.138h-3.068c-3.39,0-6.138-2.748-6.138-6.138v-53.156&#10;&#9;&#9;c0-3.39,2.748-6.138,6.138-6.138h3.068c3.39,0,6.138,2.748,6.138,6.138V882.098z"/>
	<path fill="#FFFFFF" d="M401.634,863.192c-3.39,0-6.138-2.748-6.138-6.138v-3.068c0-3.39,2.748-6.138,6.138-6.138h53.156&#10;&#9;&#9;c3.39,0,6.138,2.748,6.138,6.138v3.068c0,3.39-2.748,6.138-6.138,6.138H401.634z"/>
</g>
<g>
	<path fill="#FFFFFF" d="M300.086,455.374c0,3.39-2.748,6.138-6.138,6.138h-3.068c-3.39,0-6.138-2.748-6.138-6.138v-53.156&#10;&#9;&#9;c0-3.39,2.748-6.138,6.138-6.138h3.068c3.39,0,6.138,2.748,6.138,6.138V455.374z"/>
	<path fill="#FFFFFF" d="M265.836,436.467c-3.39,0-6.138-2.748-6.138-6.138v-3.068c0-3.39,2.748-6.138,6.138-6.138h53.156&#10;&#9;&#9;c3.39,0,6.138,2.748,6.138,6.138v3.068c0,3.39-2.748,6.138-6.138,6.138H265.836z"/>
</g>
<g>
	<path fill="#FFFFFF" d="M746.659,365.054c0,3.39-2.748,6.138-6.138,6.138h-3.068c-3.39,0-6.138-2.748-6.138-6.138v-53.156&#10;&#9;&#9;c0-3.39,2.748-6.138,6.138-6.138h3.068c3.39,0,6.138,2.748,6.138,6.138V365.054z"/>
	<path fill="#FFFFFF" d="M712.409,346.147c-3.39,0-6.138-2.748-6.138-6.138v-3.068c0-3.39,2.748-6.138,6.138-6.138h53.156&#10;&#9;&#9;c3.39,0,6.138,2.748,6.138,6.138v3.068c0,3.39-2.748,6.138-6.138,6.138H712.409z"/>
</g>
<g>
	<path fill="#3BBCBC" d="M899,155.191c0,3.39-2.748,6.138-6.138,6.138h-3.068c-3.39,0-6.138-2.748-6.138-6.138v-53.156&#10;&#9;&#9;c0-3.39,2.748-6.138,6.138-6.138h3.068c3.39,0,6.138,2.748,6.138,6.138V155.191z" style="fill: rgb(2, 107, 213);"/>
	<path fill="#3BBCBC" d="M864.75,136.285c-3.39,0-6.138-2.748-6.138-6.138v-3.068c0-3.39,2.748-6.138,6.138-6.138h53.156&#10;&#9;&#9;c3.39,0,6.138,2.748,6.138,6.138v3.068c0,3.39-2.748,6.138-6.138,6.138H864.75z" style="fill: rgb(2, 107, 213);"/>
</g>
<g>
	<path fill="#FF795A" d="M696.672,215.807c0,3.39-2.748,6.138-6.138,6.138h-3.068c-3.39,0-6.138-2.748-6.138-6.138v-53.156&#10;&#9;&#9;c0-3.39,2.748-6.138,6.138-6.138h3.068c3.39,0,6.138,2.748,6.138,6.138V215.807z" style="fill: rgb(255, 112, 136);"/>
	<path fill="#FF795A" d="M662.422,196.901c-3.39,0-6.138-2.748-6.138-6.138v-3.068c0-3.39,2.748-6.138,6.138-6.138h53.156&#10;&#9;&#9;c3.39,0,6.138,2.748,6.138,6.138v3.068c0,3.39-2.748,6.138-6.138,6.138H662.422z" style="fill: rgb(255, 112, 136);"/>
</g>
<g>
	<path fill="#FFFFFF" d="M236.422,1152.059c0,3.39-2.748,6.138-6.138,6.138h-3.068c-3.39,0-6.138-2.748-6.138-6.138v-53.156&#10;&#9;&#9;c0-3.39,2.748-6.138,6.138-6.138h3.068c3.39,0,6.138,2.748,6.138,6.138V1152.059z"/>
	<path fill="#FFFFFF" d="M202.172,1133.153c-3.39,0-6.138-2.748-6.138-6.138v-3.068c0-3.39,2.748-6.138,6.138-6.138h53.156&#10;&#9;&#9;c3.39,0,6.138,2.748,6.138,6.138v3.068c0,3.39-2.748,6.138-6.138,6.138H202.172z"/>
</g>
<g>
	<path fill="#FFFFFF" d="M650.128,743.505c0,3.39-2.748,6.138-6.138,6.138h-3.068c-3.39,0-6.138-2.748-6.138-6.138V690.35&#10;&#9;&#9;c0-3.39,2.748-6.138,6.138-6.138h3.068c3.39,0,6.138,2.748,6.138,6.138V743.505z"/>
	<path fill="#FFFFFF" d="M615.878,724.599c-3.39,0-6.138-2.748-6.138-6.138v-3.068c0-3.39,2.748-6.138,6.138-6.138h53.156&#10;&#9;&#9;c3.39,0,6.138,2.748,6.138,6.138v3.068c0,3.39-2.748,6.138-6.138,6.138H615.878z"/>
</g>
<g>
	<path fill="#3BBCBC" d="M442.42,1219.415c-2.693,2.693-7.059,2.693-9.751,0l-2.437-2.437c-2.693-2.693-2.693-7.059,0-9.751&#10;&#9;&#9;L472.458,1165c2.693-2.693,7.059-2.693,9.751,0l2.437,2.437c2.693,2.693,2.693,7.059,0,9.751L442.42,1219.415z" style="fill: rgb(2, 107, 213);"/>
	<path fill="#3BBCBC" d="M430.231,1177.188c-2.693-2.693-2.693-7.059,0-9.751l2.437-2.437c2.693-2.693,7.059-2.693,9.751,0&#10;&#9;&#9;l42.227,42.227c2.693,2.693,2.693,7.059,0,9.751l-2.437,2.437c-2.693,2.693-7.059,2.693-9.751,0L430.231,1177.188z" style="fill: rgb(2, 107, 213);"/>
</g>
<g>
	<path fill="#3BBCBC" d="M1089.518,336.967c-2.693,2.693-7.059,2.693-9.751,0l-2.437-2.437c-2.693-2.693-2.693-7.059,0-9.751&#10;&#9;&#9;l42.227-42.227c2.693-2.693,7.059-2.693,9.751,0l2.437,2.437c2.693,2.693,2.693,7.059,0,9.751L1089.518,336.967z" style="fill: rgb(2, 107, 213);"/>
	<path fill="#3BBCBC" d="M1077.329,294.74c-2.693-2.693-2.693-7.059,0-9.751l2.437-2.437c2.693-2.693,7.059-2.693,9.751,0&#10;&#9;&#9;l42.227,42.227c2.693,2.693,2.693,7.059,0,9.751l-2.437,2.437c-2.693,2.693-7.059,2.693-9.751,0L1077.329,294.74z" style="fill: rgb(2, 107, 213);"/>
</g>
<g>
	<path fill="#43475B" d="M922.552,465.283c-2.693,2.693-7.059,2.693-9.751,0l-2.437-2.437c-2.693-2.693-2.693-7.059,0-9.751&#10;&#9;&#9;l42.227-42.227c2.693-2.693,7.059-2.693,9.751,0l2.437,2.437c2.693,2.693,2.693,7.059,0,9.751L922.552,465.283z"/>
	<path fill="#43475B" d="M910.364,423.056c-2.693-2.693-2.693-7.059,0-9.751l2.437-2.437c2.693-2.693,7.059-2.693,9.751,0&#10;&#9;&#9;l42.227,42.227c2.693,2.693,2.693,7.059,0,9.751l-2.437,2.437c-2.693,2.693-7.059,2.693-9.751,0L910.364,423.056z"/>
</g>
<g>
	<path fill="#FF795A" d="M360.315,766.695c-4.891,4.891-12.821,4.891-17.712,0l-4.427-4.427c-4.891-4.891-4.891-12.821,0-17.712&#10;&#9;&#9;l76.697-76.697c4.891-4.891,12.821-4.891,17.712,0l4.427,4.427c4.891,4.891,4.891,12.821,0,17.712L360.315,766.695z" style="fill: rgb(255, 112, 136);"/>
	<path fill="#FF795A" d="M338.177,689.998c-4.891-4.891-4.891-12.821,0-17.712l4.427-4.427c4.891-4.891,12.821-4.891,17.712,0&#10;&#9;&#9;l76.697,76.697c4.891,4.891,4.891,12.821,0,17.712l-4.427,4.427c-4.891,4.891-12.821,4.891-17.712,0L338.177,689.998z" style="fill: rgb(255, 112, 136);"/>
</g>
<g>
	<path fill="#FF795A" d="M871.721,318.279c-4.891,4.891-12.821,4.891-17.712,0l-4.427-4.427c-4.891-4.891-4.891-12.821,0-17.712&#10;&#9;&#9;l76.697-76.697c4.891-4.891,12.821-4.891,17.712,0l4.427,4.427c4.891,4.891,4.891,12.821,0,17.712L871.721,318.279z" style="fill: rgb(255, 112, 136);"/>
	<path fill="#FF795A" d="M849.582,241.582c-4.891-4.891-4.891-12.821,0-17.712l4.427-4.427c4.891-4.891,12.821-4.891,17.712,0&#10;&#9;&#9;l76.697,76.697c4.891,4.891,4.891,12.821,0,17.712l-4.427,4.427c-4.891,4.891-12.821,4.891-17.712,0L849.582,241.582z" style="fill: rgb(255, 112, 136);"/>
</g>
<g>
	<path fill="#FF795A" d="M543.721,387.235c-4.891,4.891-12.821,4.891-17.712,0l-4.427-4.427c-4.891-4.891-4.891-12.821,0-17.712&#10;&#9;&#9;l76.697-76.697c4.891-4.891,12.821-4.891,17.712,0l4.427,4.427c4.891,4.891,4.891,12.821,0,17.712L543.721,387.235z" style="fill: rgb(255, 112, 136);"/>
	<path fill="#FF795A" d="M521.582,310.538c-4.891-4.891-4.891-12.821,0-17.712l4.427-4.427c4.891-4.891,12.821-4.891,17.712,0&#10;&#9;&#9;l76.697,76.697c4.891,4.891,4.891,12.821,0,17.712l-4.427,4.427c-4.891,4.891-12.821,4.891-17.712,0L521.582,310.538z" style="fill: rgb(255, 112, 136);"/>
</g>
<g>
	<path fill="#FF795A" d="M82.299,1015.011c-2.384,2.384-6.249,2.384-8.633,0l-2.158-2.158c-2.384-2.384-2.384-6.249,0-8.633&#10;&#9;&#9;l37.382-37.382c2.384-2.384,6.249-2.384,8.633,0l2.158,2.158c2.384,2.384,2.384,6.249,0,8.633L82.299,1015.011z" style="fill: rgb(255, 112, 136);"/>
	<path fill="#FF795A" d="M71.509,977.629c-2.384-2.384-2.384-6.249,0-8.633l2.158-2.158c2.384-2.384,6.249-2.384,8.633,0&#10;&#9;&#9;l37.382,37.382c2.384,2.384,2.384,6.249,0,8.633l-2.158,2.158c-2.384,2.384-6.249,2.384-8.633,0L71.509,977.629z" style="fill: rgb(255, 112, 136);"/>
</g>
<g>
	<path fill="#3BBCBC" d="M173.433,80.898c6.627,0,12,5.373,12,12v5.998c0,6.627-5.373,12-12,12H69.505c-6.627,0-12-5.373-12-12&#10;&#9;&#9;v-5.998c0-6.627,5.373-12,12-12H173.433z" style="fill: rgb(2, 107, 213);"/>
	<path fill="#3BBCBC" d="M136.468,147.862c0,6.627-5.373,12-12,12h-5.998c-6.627,0-12-5.373-12-12V43.934c0-6.627,5.373-12,12-12&#10;&#9;&#9;h5.998c6.627,0,12,5.373,12,12V147.862z" style="fill: rgb(2, 107, 213);"/>
</g>
<g>
	<path fill="#FFFFFF" d="M404.574,63.262c3.39,0,6.138,2.748,6.138,6.138v3.068c0,3.39-2.748,6.138-6.138,6.138h-53.156&#10;&#9;&#9;c-3.39,0-6.138-2.748-6.138-6.138V69.4c0-3.39,2.748-6.138,6.138-6.138H404.574z"/>
	<path fill="#FFFFFF" d="M385.668,97.512c0,3.39-2.748,6.138-6.138,6.138h-3.068c-3.39,0-6.138-2.748-6.138-6.138V44.356&#10;&#9;&#9;c0-3.39,2.748-6.138,6.138-6.138h3.068c3.39,0,6.138,2.748,6.138,6.138V97.512z"/>
</g>
<g>
	<path fill="#FF795A" d="M267.526,217.385c2.384,2.384,2.384,6.249,0,8.633l-2.158,2.158c-2.384,2.384-6.249,2.384-8.633,0&#10;&#9;&#9;l-37.382-37.382c-2.384-2.384-2.384-6.249,0-8.633l2.158-2.158c2.384-2.384,6.249-2.384,8.633,0L267.526,217.385z" style="fill: rgb(255, 112, 136);"/>
	<path fill="#FF795A" d="M230.144,228.175c-2.384,2.384-6.249,2.384-8.633,0l-2.158-2.158c-2.384-2.384-2.384-6.249,0-8.633&#10;&#9;&#9;l37.382-37.382c2.384-2.384,6.249-2.384,8.633,0l2.158,2.158c2.384,2.384,2.384,6.249,0,8.633L230.144,228.175z" style="fill: rgb(255, 112, 136);"/>
</g>
<g>
	<path fill="#3BBCBC" d="M645.173,1561.241c0-6.627,5.373-12,12-12h5.998c6.627,0,12,5.373,12,12v103.928c0,6.627-5.373,12-12,12&#10;&#9;&#9;h-5.998c-6.627,0-12-5.373-12-12V1561.241z" style="fill: rgb(2, 107, 213);"/>
	<path fill="#3BBCBC" d="M712.137,1598.205c6.627,0,12,5.373,12,12v5.998c0,6.627-5.373,12-12,12H608.209c-6.627,0-12-5.373-12-12&#10;&#9;&#9;v-5.998c0-6.627,5.373-12,12-12H712.137z" style="fill: rgb(2, 107, 213);"/>
</g>
<g>
	<path fill="#3BBCBC" d="M132.414,1218.393c0-6.627,5.373-12,12-12h5.999c6.627,0,12,5.373,12,12v103.928c0,6.627-5.373,12-12,12&#10;&#9;&#9;h-5.999c-6.627,0-12-5.373-12-12V1218.393z" style="fill: rgb(2, 107, 213);"/>
	<path fill="#3BBCBC" d="M199.378,1255.357c6.627,0,12,5.373,12,12v5.999c0,6.627-5.373,12-12,12H95.45c-6.627,0-12-5.373-12-12&#10;&#9;&#9;v-5.999c0-6.627,5.373-12,12-12H199.378z" style="fill: rgb(2, 107, 213);"/>
</g>
<g>
	<path fill="#FF795A" d="M1061.469,1412.795c0-6.627,5.373-12,12-12h5.999c6.627,0,12,5.373,12,12v103.928c0,6.627-5.373,12-12,12&#10;&#9;&#9;h-5.999c-6.627,0-12-5.373-12-12V1412.795z" style="fill: rgb(255, 112, 136);"/>
	<path fill="#FF795A" d="M1128.432,1449.759c6.627,0,12,5.373,12,12v5.999c0,6.627-5.373,12-12,12h-103.928c-6.627,0-12-5.373-12-12&#10;&#9;&#9;v-5.999c0-6.627,5.373-12,12-12H1128.432z" style="fill: rgb(255, 112, 136);"/>
</g>
<g>
	<path fill="#FFFFFF" d="M806.942,1456.32c0-6.627,5.373-12,12-12h5.998c6.627,0,12,5.373,12,12v103.928c0,6.627-5.373,12-12,12&#10;&#9;&#9;h-5.998c-6.627,0-12-5.373-12-12V1456.32z"/>
	<path fill="#FFFFFF" d="M873.905,1493.285c6.627,0,12,5.373,12,12v5.999c0,6.627-5.373,12-12,12H769.977c-6.627,0-12-5.373-12-12&#10;&#9;&#9;v-5.999c0-6.627,5.373-12,12-12H873.905z"/>
</g>
<g>
	<path fill="#FFFFFF" d="M106.469,1546.526c0-6.627,5.373-12,12-12h5.998c6.627,0,12,5.373,12,12v103.928c0,6.627-5.373,12-12,12&#10;&#9;&#9;h-5.998c-6.627,0-12-5.373-12-12V1546.526z"/>
	<path fill="#FFFFFF" d="M173.433,1583.49c6.627,0,12,5.373,12,12v5.999c0,6.627-5.373,12-12,12H69.505c-6.627,0-12-5.373-12-12&#10;&#9;&#9;v-5.999c0-6.627,5.373-12,12-12H173.433z"/>
</g>
<g>
	<path fill="#3BBCBC" d="M294.468,1609.298c0-3.39,2.748-6.138,6.138-6.138h3.068c3.39,0,6.138,2.748,6.138,6.138v53.156&#10;&#9;&#9;c0,3.39-2.748,6.138-6.138,6.138h-3.068c-3.39,0-6.138-2.748-6.138-6.138V1609.298z" style="fill: rgb(2, 107, 213);"/>
	<path fill="#3BBCBC" d="M328.718,1628.204c3.39,0,6.138,2.748,6.138,6.138v3.068c0,3.39-2.748,6.138-6.138,6.138h-53.156&#10;&#9;&#9;c-3.39,0-6.138-2.748-6.138-6.138v-3.068c0-3.39,2.748-6.138,6.138-6.138H328.718z" style="fill: rgb(2, 107, 213);"/>
</g>
<g>
	<path fill="#FF795A" d="M453.256,1616.625c0-3.39,2.748-6.138,6.138-6.138h3.068c3.39,0,6.138,2.748,6.138,6.138v53.156&#10;&#9;&#9;c0,3.39-2.748,6.138-6.138,6.138h-3.068c-3.39,0-6.138-2.748-6.138-6.138V1616.625z" style="fill: rgb(255, 112, 136);"/>
	<path fill="#FF795A" d="M487.505,1635.531c3.39,0,6.138,2.748,6.138,6.138v3.068c0,3.39-2.748,6.138-6.138,6.138H434.35&#10;&#9;&#9;c-3.39,0-6.138-2.748-6.138-6.138v-3.068c0-3.39,2.748-6.138,6.138-6.138H487.505z" style="fill: rgb(255, 112, 136);"/>
</g>
<g>
	<path fill="#3BBCBC" d="M103.95,1427.522c2.693-2.693,7.059-2.693,9.751,0l2.437,2.437c2.693,2.693,2.693,7.059,0,9.751&#10;&#9;&#9;l-42.227,42.227c-2.693,2.693-7.059,2.693-9.751,0l-2.437-2.437c-2.693-2.693-2.693-7.059,0-9.751L103.95,1427.522z" style="fill: rgb(2, 107, 213);"/>
	<path fill="#3BBCBC" d="M116.139,1469.749c2.693,2.693,2.693,7.059,0,9.751l-2.437,2.437c-2.693,2.693-7.059,2.693-9.751,0&#10;&#9;&#9;l-42.227-42.227c-2.693-2.693-2.693-7.059,0-9.751l2.437-2.437c2.693-2.693,7.059-2.693,9.751,0L116.139,1469.749z" style="fill: rgb(2, 107, 213);"/>
</g>
<g>
	<path fill="#FF795A" d="M321.747,1446.21c4.891-4.891,12.821-4.891,17.712,0l4.427,4.427c4.891,4.891,4.891,12.821,0,17.712&#10;&#9;&#9;l-76.697,76.697c-4.891,4.891-12.821,4.891-17.712,0l-4.427-4.427c-4.891-4.891-4.891-12.821,0-17.712L321.747,1446.21z" style="fill: rgb(255, 112, 136);"/>
	<path fill="#FF795A" d="M343.886,1522.907c4.891,4.891,4.891,12.821,0,17.712l-4.427,4.427c-4.891,4.891-12.821,4.891-17.712,0&#10;&#9;&#9;l-76.697-76.697c-4.891-4.891-4.891-12.821,0-17.712l4.427-4.427c4.891-4.891,12.821-4.891,17.712,0L343.886,1522.907z" style="fill: rgb(255, 112, 136);"/>
</g>
<g>
	<path fill="#FFFFFF" d="M2194.638,1612.968c0-6.627,5.373-12,12-12h5.999c6.627,0,12,5.373,12,12v103.928c0,6.627-5.373,12-12,12&#10;&#9;&#9;h-5.999c-6.627,0-12-5.373-12-12V1612.968z"/>
	<path fill="#FFFFFF" d="M2261.601,1649.932c6.627,0,12,5.373,12,12v5.999c0,6.627-5.373,12-12,12h-103.928c-6.627,0-12-5.373-12-12&#10;&#9;&#9;v-5.999c0-6.627,5.373-12,12-12H2261.601z"/>
</g>
<g>
	<path fill="#3BBCBC" d="M2382.636,1675.74c0-3.39,2.748-6.138,6.138-6.138h3.068c3.39,0,6.137,2.748,6.137,6.138v53.156&#10;&#9;&#9;c0,3.39-2.748,6.138-6.137,6.138h-3.068c-3.39,0-6.138-2.748-6.138-6.138V1675.74z" style="fill: rgb(2, 107, 213);"/>
	<path fill="#3BBCBC" d="M2416.886,1694.646c3.39,0,6.137,2.748,6.137,6.138v3.068c0,3.39-2.748,6.138-6.137,6.138h-53.156&#10;&#9;&#9;c-3.39,0-6.138-2.748-6.138-6.138v-3.068c0-3.39,2.748-6.138,6.138-6.138H2416.886z" style="fill: rgb(2, 107, 213);"/>
</g>
<g>
	<path fill="#3BBCBC" d="M2192.118,1493.964c2.693-2.693,7.059-2.693,9.751,0l2.437,2.437c2.693,2.693,2.693,7.059,0,9.751&#10;&#9;&#9;l-42.227,42.227c-2.693,2.693-7.059,2.693-9.751,0l-2.437-2.437c-2.693-2.693-2.693-7.059,0-9.751L2192.118,1493.964z" style="fill: rgb(2, 107, 213);"/>
	<path fill="#3BBCBC" d="M2204.307,1536.191c2.693,2.693,2.693,7.059,0,9.751l-2.437,2.437c-2.693,2.693-7.059,2.693-9.751,0&#10;&#9;&#9;l-42.227-42.227c-2.693-2.693-2.693-7.059,0-9.751l2.437-2.437c2.693-2.693,7.059-2.693,9.751,0L2204.307,1536.191z" style="fill: rgb(2, 107, 213);"/>
</g>
<g>
	<path fill="#FF795A" d="M2409.916,1512.652c4.891-4.891,12.821-4.891,17.712,0l4.427,4.427c4.891,4.891,4.891,12.821,0,17.712&#10;&#9;&#9;l-76.697,76.697c-4.891,4.891-12.821,4.891-17.712,0l-4.427-4.427c-4.891-4.891-4.891-12.821,0-17.712L2409.916,1512.652z" style="fill: rgb(255, 112, 136);"/>
	<path fill="#FF795A" d="M2432.054,1589.349c4.891,4.891,4.891,12.821,0,17.712l-4.427,4.427c-4.891,4.891-12.821,4.891-17.712,0&#10;&#9;&#9;l-76.697-76.697c-4.891-4.891-4.891-12.821,0-17.712l4.427-4.427c4.891-4.891,12.821-4.891,17.712,0L2432.054,1589.349z" style="fill: rgb(255, 112, 136);"/>
</g>
<g>
	<path fill="#FFFFFF" d="M1281.763,1546.526c0-6.627,5.373-12,12-12h5.999c6.627,0,12,5.373,12,12v103.928c0,6.627-5.373,12-12,12&#10;&#9;&#9;h-5.999c-6.627,0-12-5.373-12-12V1546.526z"/>
	<path fill="#FFFFFF" d="M1348.727,1583.49c6.627,0,12,5.373,12,12v5.999c0,6.627-5.373,12-12,12h-103.928c-6.627,0-12-5.373-12-12&#10;&#9;&#9;v-5.999c0-6.627,5.373-12,12-12H1348.727z"/>
</g>
<g>
	<path fill="#3BBCBC" d="M1469.762,1609.298c0-3.39,2.748-6.138,6.138-6.138h3.068c3.39,0,6.138,2.748,6.138,6.138v53.156&#10;&#9;&#9;c0,3.39-2.748,6.138-6.138,6.138h-3.068c-3.39,0-6.138-2.748-6.138-6.138V1609.298z" style="fill: rgb(2, 107, 213);"/>
	<path fill="#3BBCBC" d="M1504.012,1628.204c3.39,0,6.138,2.748,6.138,6.138v3.068c0,3.39-2.748,6.138-6.138,6.138h-53.156&#10;&#9;&#9;c-3.39,0-6.138-2.748-6.138-6.138v-3.068c0-3.39,2.748-6.138,6.138-6.138H1504.012z" style="fill: rgb(2, 107, 213);"/>
</g>
<g>
	<path fill="#3BBCBC" d="M1279.244,1427.522c2.693-2.693,7.059-2.693,9.751,0l2.437,2.437c2.693,2.693,2.693,7.059,0,9.751&#10;&#9;&#9;l-42.227,42.227c-2.693,2.693-7.059,2.693-9.751,0l-2.437-2.437c-2.693-2.693-2.693-7.059,0-9.751L1279.244,1427.522z" style="fill: rgb(2, 107, 213);"/>
	<path fill="#3BBCBC" d="M1291.432,1469.749c2.693,2.693,2.693,7.059,0,9.751l-2.437,2.437c-2.693,2.693-7.059,2.693-9.751,0&#10;&#9;&#9;l-42.227-42.227c-2.693-2.693-2.693-7.059,0-9.751l2.437-2.437c2.693-2.693,7.059-2.693,9.751,0L1291.432,1469.749z" style="fill: rgb(2, 107, 213);"/>
</g>
<g>
	<path fill="#FF795A" d="M1497.041,1446.21c4.891-4.891,12.821-4.891,17.712,0l4.427,4.427c4.891,4.891,4.891,12.821,0,17.712&#10;&#9;&#9;l-76.697,76.697c-4.891,4.891-12.821,4.891-17.712,0l-4.427-4.427c-4.891-4.891-4.891-12.821,0-17.712L1497.041,1446.21z" style="fill: rgb(255, 112, 136);"/>
	<path fill="#FF795A" d="M1519.18,1522.907c4.891,4.891,4.891,12.821,0,17.712l-4.427,4.427c-4.891,4.891-12.821,4.891-17.712,0&#10;&#9;&#9;l-76.697-76.697c-4.891-4.891-4.891-12.821,0-17.712l4.427-4.427c4.891-4.891,12.821-4.891,17.712,0L1519.18,1522.907z" style="fill: rgb(255, 112, 136);"/>
</g>
<g>
	<path fill="#FFFFFF" d="M572.02,1430.34c4.891-4.891,12.821-4.891,17.712,0l4.427,4.427c4.891,4.891,4.891,12.821,0,17.712&#10;&#9;&#9;l-76.697,76.697c-4.891,4.891-12.821,4.891-17.712,0l-4.427-4.427c-4.891-4.891-4.891-12.821,0-17.712L572.02,1430.34z"/>
	<path fill="#FFFFFF" d="M594.159,1507.037c4.891,4.891,4.891,12.821,0,17.712l-4.427,4.427c-4.891,4.891-12.821,4.891-17.712,0&#10;&#9;&#9;l-76.697-76.697c-4.891-4.891-4.891-12.821,0-17.712l4.427-4.427c4.891-4.891,12.821-4.891,17.712,0L594.159,1507.037z"/>
</g>
<g>
	<path fill="#3BBCBC" d="M1020.035,1683.59c-6.627,0-12-5.373-12-12v-5.999c0-6.627,5.373-12,12-12h103.928c6.627,0,12,5.373,12,12&#10;&#9;&#9;v5.999c0,6.627-5.373,12-12,12H1020.035z" style="fill: rgb(2, 107, 213);"/>
	<path fill="#3BBCBC" d="M1057,1616.627c0-6.627,5.373-12,12-12h5.999c6.627,0,12,5.373,12,12v103.928c0,6.627-5.373,12-12,12H1069&#10;&#9;&#9;c-6.627,0-12-5.373-12-12V1616.627z" style="fill: rgb(2, 107, 213);"/>
</g>
<g>
	<path fill="#FFFFFF" d="M788.894,1701.227c-3.39,0-6.138-2.748-6.138-6.138v-3.068c0-3.39,2.748-6.138,6.138-6.138h53.156&#10;&#9;&#9;c3.39,0,6.138,2.748,6.138,6.138v3.068c0,3.39-2.748,6.138-6.138,6.138H788.894z"/>
	<path fill="#FFFFFF" d="M807.8,1666.977c0-3.39,2.748-6.138,6.138-6.138h3.068c3.39,0,6.138,2.748,6.138,6.138v53.156&#10;&#9;&#9;c0,3.39-2.748,6.138-6.138,6.138h-3.068c-3.39,0-6.138-2.748-6.138-6.138V1666.977z"/>
</g>
<g>
	<path fill="#FF795A" d="M925.942,1547.104c-2.384-2.384-2.384-6.249,0-8.633l2.158-2.158c2.384-2.384,6.249-2.384,8.633,0&#10;&#9;&#9;l37.382,37.382c2.384,2.384,2.384,6.249,0,8.633l-2.158,2.158c-2.384,2.384-6.249,2.384-8.633,0L925.942,1547.104z" style="fill: rgb(255, 112, 136);"/>
	<path fill="#FF795A" d="M963.324,1536.314c2.384-2.384,6.249-2.384,8.633,0l2.158,2.158c2.384,2.384,2.384,6.249,0,8.633&#10;&#9;&#9;l-37.382,37.382c-2.384,2.384-6.249,2.384-8.633,0l-2.158-2.158c-2.384-2.384-2.384-6.249,0-8.633L963.324,1536.314z" style="fill: rgb(255, 112, 136);"/>
</g>
<g transform="matrix(1, 0, 0, 1, 0, 0)">
	<path fill="#3BBCBC" d="M2004.027,1623.354c0-3.39,2.748-6.138,6.138-6.138h3.068c3.39,0,6.138,2.748,6.138,6.138v53.156&#10;&#9;&#9;c0,3.39-2.748,6.138-6.138,6.138h-3.068c-3.39,0-6.138-2.748-6.138-6.138V1623.354z" style="fill: rgb(2, 107, 213);"/>
	<path fill="#3BBCBC" d="M2038.277,1642.261c3.39,0,6.138,2.748,6.138,6.138v3.068c0,3.39-2.748,6.138-6.138,6.138h-53.156&#10;&#9;&#9;c-3.39,0-6.138-2.748-6.138-6.138v-3.068c0-3.39,2.748-6.138,6.138-6.138H2038.277z" style="fill: rgb(2, 107, 213);"/>
</g>
<g>
	<path fill="#3BBCBC" d="M1854.306,1682.781c2.693-2.693,7.059-2.693,9.751,0l2.437,2.437c2.693,2.693,2.693,7.059,0,9.751&#10;&#9;&#9;l-42.227,42.227c-2.693,2.693-7.059,2.693-9.751,0l-2.437-2.437c-2.693-2.693-2.693-7.059,0-9.751L1854.306,1682.781z" style="fill: rgb(2, 107, 213);"/>
	<path fill="#3BBCBC" d="M1866.495,1725.008c2.693,2.693,2.693,7.059,0,9.751l-2.437,2.437c-2.693,2.693-7.059,2.693-9.751,0&#10;&#9;&#9;l-42.227-42.227c-2.693-2.693-2.693-7.059,0-9.751l2.437-2.437c2.693-2.693,7.059-2.693,9.751,0L1866.495,1725.008z" style="fill: rgb(2, 107, 213);"/>
</g>
<g>
	<path fill="#FF795A" d="M1602.849,1710.046c-2.384-2.384-2.384-6.249,0-8.633l2.158-2.158c2.384-2.384,6.249-2.384,8.633,0&#10;&#9;&#9;l37.382,37.382c2.384,2.384,2.384,6.249,0,8.633l-2.158,2.158c-2.384,2.384-6.249,2.384-8.633,0L1602.849,1710.046z" style="fill: rgb(255, 112, 136);"/>
	<path fill="#FF795A" d="M1640.231,1699.256c2.384-2.384,6.249-2.384,8.633,0l2.158,2.158c2.384,2.384,2.384,6.249,0,8.633&#10;&#9;&#9;l-37.382,37.382c-2.384,2.384-6.249,2.384-8.633,0l-2.158-2.158c-2.384-2.384-2.384-6.249,0-8.633L1640.231,1699.256z" style="fill: rgb(255, 112, 136);"/>
</g>
<g>
	<path fill="#FFFFFF" d="M219.721,895.92c-4.891,4.891-12.821,4.891-17.712,0l-4.427-4.427c-4.891-4.891-4.891-12.821,0-17.712&#10;&#9;&#9;l76.697-76.697c4.891-4.891,12.821-4.891,17.712,0l4.427,4.427c4.891,4.891,4.891,12.821,0,17.712L219.721,895.92z"/>
	<path fill="#FFFFFF" d="M197.582,819.223c-4.891-4.891-4.891-12.821,0-17.712l4.427-4.427c4.891-4.891,12.821-4.891,17.712,0&#10;&#9;&#9;l76.697,76.697c4.891,4.891,4.891,12.821,0,17.712l-4.427,4.427c-4.891,4.891-12.821,4.891-17.712,0L197.582,819.223z"/>
</g>
<g>
	<path fill="#3BBCBC" d="M2691.931,818.687c0,6.627-5.373,12-12,12h-5.999c-6.627,0-12-5.373-12-12V714.759c0-6.627,5.373-12,12-12&#10;&#9;&#9;h5.999c6.627,0,12,5.373,12,12V818.687z" style="fill: rgb(2, 107, 213);"/>
	<path fill="#3BBCBC" d="M2624.968,781.722c-6.627,0-12-5.373-12-12v-5.998c0-6.627,5.373-12,12-12h103.928c6.627,0,12,5.373,12,12&#10;&#9;&#9;v5.998c0,6.627-5.373,12-12,12H2624.968z" style="fill: rgb(2, 107, 213);"/>
</g>
<g>
	<path fill="#FF795A" d="M2702.365,1169.774c0,6.627-5.373,12-12,12h-5.999c-6.627,0-12-5.373-12-12v-103.928&#10;&#9;&#9;c0-6.627,5.373-12,12-12h5.999c6.627,0,12,5.373,12,12V1169.774z" style="fill: rgb(255, 112, 136);"/>
	<path fill="#FF795A" d="M2635.402,1132.809c-6.627,0-12-5.373-12-12v-5.998c0-6.627,5.373-12,12-12h103.928c6.627,0,12,5.373,12,12&#10;&#9;&#9;v5.998c0,6.627-5.373,12-12,12H2635.402z" style="fill: rgb(255, 112, 136);"/>
</g>
<g>
	<path fill="#FFFFFF" d="M2510.326,785.629c0,3.39-2.748,6.138-6.137,6.138h-3.068c-3.39,0-6.138-2.748-6.138-6.138v-53.156&#10;&#9;&#9;c0-3.39,2.748-6.138,6.138-6.138h3.068c3.39,0,6.137,2.748,6.137,6.138V785.629z"/>
	<path fill="#FFFFFF" d="M2476.076,766.723c-3.39,0-6.138-2.748-6.138-6.138v-3.068c0-3.39,2.748-6.138,6.138-6.138h53.156&#10;&#9;&#9;c3.39,0,6.137,2.748,6.137,6.138v3.068c0,3.39-2.748,6.138-6.137,6.138H2476.076z"/>
</g>
<g>
	<path fill="#FFFFFF" d="M2575.757,983.273c0,3.39-2.748,6.138-6.138,6.138h-3.068c-3.39,0-6.138-2.748-6.138-6.138v-53.156&#10;&#9;&#9;c0-3.39,2.748-6.138,6.138-6.138h3.068c3.39,0,6.138,2.748,6.138,6.138V983.273z"/>
	<path fill="#FFFFFF" d="M2541.508,964.367c-3.39,0-6.138-2.748-6.138-6.138v-3.068c0-3.39,2.748-6.138,6.138-6.138h53.156&#10;&#9;&#9;c3.39,0,6.138,2.748,6.138,6.138v3.068c0,3.39-2.748,6.138-6.138,6.138H2541.508z"/>
</g>
<g>
	<path fill="#FF795A" d="M2385.798,576.981c-4.891,4.891-12.821,4.891-17.711,0l-4.427-4.427c-4.891-4.891-4.891-12.821,0-17.712&#10;&#9;&#9;l76.697-76.697c4.891-4.891,12.821-4.891,17.712,0l4.427,4.427c4.891,4.891,4.891,12.821,0,17.712L2385.798,576.981z" style="fill: rgb(255, 112, 136);"/>
	<path fill="#FF795A" d="M2363.659,500.284c-4.891-4.891-4.891-12.821,0-17.712l4.427-4.427c4.891-4.891,12.821-4.891,17.711,0&#10;&#9;&#9;l76.697,76.697c4.891,4.891,4.891,12.821,0,17.712l-4.427,4.427c-4.891,4.891-12.821,4.891-17.712,0L2363.659,500.284z" style="fill: rgb(255, 112, 136);"/>
</g>
<g>
	<path fill="#FF795A" d="M2404.608,960.782c-2.384,2.384-6.249,2.384-8.633,0l-2.157-2.158c-2.384-2.384-2.384-6.249,0-8.633&#10;&#9;&#9;l37.382-37.382c2.384-2.384,6.249-2.384,8.633,0l2.158,2.158c2.384,2.384,2.384,6.249,0,8.633L2404.608,960.782z" style="fill: rgb(255, 112, 136);"/>
	<path fill="#FF795A" d="M2393.818,923.4c-2.384-2.384-2.384-6.249,0-8.633l2.157-2.158c2.384-2.384,6.249-2.384,8.633,0&#10;&#9;&#9;l37.382,37.382c2.384,2.384,2.384,6.249,0,8.633l-2.158,2.158c-2.384,2.384-6.249,2.384-8.633,0L2393.818,923.4z" style="fill: rgb(255, 112, 136);"/>
</g>
<g>
	<path fill="#3BBCBC" d="M2439.034,1102.039c0-6.627,5.373-12,12-12h5.999c6.627,0,12,5.373,12,12v103.928c0,6.627-5.373,12-12,12&#10;&#9;&#9;h-5.999c-6.627,0-12-5.373-12-12V1102.039z" style="fill: rgb(2, 107, 213);"/>
	<path fill="#3BBCBC" d="M2505.997,1139.004c6.627,0,12,5.373,12,12v5.998c0,6.627-5.373,12-12,12h-103.928c-6.627,0-12-5.373-12-12&#10;&#9;&#9;v-5.998c0-6.627,5.373-12,12-12H2505.997z" style="fill: rgb(2, 107, 213);"/>
</g>
<g>
	<path fill="#FFFFFF" d="M2582.969,1616.627c0-6.627,5.373-12,12-12h5.999c6.627,0,12,5.373,12,12v103.928c0,6.627-5.373,12-12,12&#10;&#9;&#9;h-5.999c-6.627,0-12-5.373-12-12V1616.627z"/>
	<path fill="#FFFFFF" d="M2649.933,1653.592c6.627,0,12,5.373,12,12v5.999c0,6.627-5.373,12-12,12h-103.928c-6.627,0-12-5.373-12-12&#10;&#9;&#9;v-5.999c0-6.627,5.373-12,12-12H2649.933z"/>
</g>
<g>
	<path fill="#3BBCBC" d="M2684.26,1481.706c0-3.39,2.748-6.138,6.138-6.138h3.068c3.39,0,6.138,2.748,6.138,6.138v53.156&#10;&#9;&#9;c0,3.39-2.748,6.138-6.138,6.138h-3.068c-3.39,0-6.138-2.748-6.138-6.138V1481.706z" style="fill: rgb(2, 107, 213);"/>
	<path fill="#3BBCBC" d="M2718.509,1500.613c3.39,0,6.138,2.748,6.138,6.138v3.068c0,3.39-2.748,6.138-6.138,6.138h-53.156&#10;&#9;&#9;c-3.39,0-6.138-2.748-6.138-6.138v-3.068c0-3.39,2.748-6.138,6.138-6.138H2718.509z" style="fill: rgb(2, 107, 213);"/>
</g>
<g>
	<path fill="#3BBCBC" d="M2481.887,1330.304c2.693-2.693,7.059-2.693,9.751,0l2.437,2.437c2.693,2.693,2.693,7.059,0,9.751&#10;&#9;&#9;l-42.227,42.227c-2.693,2.693-7.059,2.693-9.751,0l-2.437-2.437c-2.693-2.693-2.693-7.059,0-9.751L2481.887,1330.304z" style="fill: rgb(2, 107, 213);"/>
	<path fill="#3BBCBC" d="M2494.076,1372.531c2.693,2.693,2.693,7.059,0,9.751l-2.437,2.437c-2.693,2.693-7.059,2.693-9.751,0&#10;&#9;&#9;l-42.227-42.227c-2.693-2.693-2.693-7.059,0-9.751l2.437-2.437c2.693-2.693,7.059-2.693,9.751,0L2494.076,1372.531z" style="fill: rgb(2, 107, 213);"/>
</g>
<g>
	<path fill="#FF795A" d="M2681.453,1303.59c4.891-4.891,12.821-4.891,17.712,0l4.427,4.427c4.891,4.891,4.891,12.821,0,17.712&#10;&#9;&#9;l-76.697,76.697c-4.891,4.891-12.821,4.891-17.711,0l-4.427-4.427c-4.891-4.891-4.891-12.821,0-17.712L2681.453,1303.59z" style="fill: rgb(255, 112, 136);"/>
	<path fill="#FF795A" d="M2703.591,1380.287c4.891,4.891,4.891,12.821,0,17.712l-4.427,4.427c-4.891,4.891-12.821,4.891-17.712,0&#10;&#9;&#9;l-76.697-76.697c-4.891-4.891-4.891-12.821,0-17.712l4.427-4.427c4.891-4.891,12.821-4.891,17.711,0L2703.591,1380.287z" style="fill: rgb(255, 112, 136);"/>
</g>
<g>
	<path fill="#FFFFFF" d="M2589.152,601.79c-4.891,4.891-12.821,4.891-17.712,0l-4.427-4.427c-4.891-4.891-4.891-12.821,0-17.712&#10;&#9;&#9;l76.697-76.697c4.891-4.891,12.821-4.891,17.712,0l4.427,4.427c4.891,4.891,4.891,12.821,0,17.712L2589.152,601.79z"/>
	<path fill="#FFFFFF" d="M2567.013,525.093c-4.891-4.891-4.891-12.821,0-17.712l4.427-4.427c4.891-4.891,12.821-4.891,17.712,0&#10;&#9;&#9;l76.697,76.697c4.891,4.891,4.891,12.821,0,17.712l-4.427,4.427c-4.891,4.891-12.821,4.891-17.712,0L2567.013,525.093z"/>
</g>
<g>
	<path fill="#43475B" d="M556.7,1005.076c-2.693,2.693-7.059,2.693-9.751,0l-2.437-2.437c-2.693-2.693-2.693-7.059,0-9.751&#10;&#9;&#9;l42.227-42.227c2.693-2.693,7.059-2.693,9.751,0l2.437,2.437c2.693,2.693,2.693,7.059,0,9.751L556.7,1005.076z"/>
	<path fill="#43475B" d="M544.511,962.849c-2.693-2.693-2.693-7.059,0-9.751l2.437-2.437c2.693-2.693,7.059-2.693,9.751,0&#10;&#9;&#9;l42.227,42.227c2.693,2.693,2.693,7.059,0,9.751l-2.437,2.437c-2.693,2.693-7.059,2.693-9.751,0L544.511,962.849z"/>
</g>
</svg>