<?xml version="1.0" encoding="utf-8"?>
<svg id="master-artboard" viewBox="0 0 471.3872985839844 474.4219665527344" version="1.1" xmlns="http://www.w3.org/2000/svg" x="0px" y="0px" style="enable-background:new 0 0 1400 980;" width="471.3872985839844px" height="474.4219665527344px"><rect id="ee-background" x="0" y="0" width="471.3872985839844" height="474.4219665527344" style="fill: white; fill-opacity: 0; pointer-events: none;"/>


<path d="M 1344.700043 757.400024 A 144.399994 144.399994 0 0 1 1200.300049 901.800018 A 144.399994 144.399994 0 0 1 1055.900055 757.400024 A 144.399994 144.399994 0 0 1 1200.300049 613.000031 A 144.399994 144.399994 0 0 1 1344.700043 757.400024 Z" id="XMLID_636_" class="st1" style="fill: rgb(246, 139, 166);" transform="matrix(1, 0, 0, 1, -928.6126708984375, -505.5780334472656)"/><path d="M 1154.300049 618.599976 H 1173.300049 V 890.299988 H 1154.300049 V 618.599976 Z" id="XMLID_634_" class="st2" style="fill: rgb(0, 106, 211);" transform="matrix(1, 0, 0, 1, -928.6126708984375, -505.5780334472656)"/><path d="M 1028.5 890.299988 H 1298 V 909.299988 H 1028.5 V 890.299988 Z" id="XMLID_633_" class="st2" style="fill: rgb(0, 106, 211);" transform="matrix(1, 0, 0, 1, -928.6126708984375, -505.5780334472656)"/><path id="XMLID_577_" class="st3" d="M1174.9,887.3v-19.5c0-1-0.8-1.8-1.8-1.8h-18.3c-1,0-1.8,0.8-1.8,1.8v19.5&#10;&#9;&#9;c0,1.3-1,2.3-2.3,2.3h-13.1c-1,0-1.8,0.8-1.8,1.8v18.3c0,1,0.8,1.8,1.8,1.8h52.8c1,0,1.8-0.8,1.8-1.8v-18.3c0-1-0.8-1.8-1.8-1.8&#10;&#9;&#9;h-13.1C1175.9,889.6,1174.9,888.6,1174.9,887.3z" style="fill: rgb(19, 31, 82);" transform="matrix(1, 0, 0, 1, -928.6126708984375, -505.5780334472656)"/><path id="XMLID_615_" class="st4" d="M1062.9,553.3c-20.9,0-37.8,16.9-37.8,37.8v0c0,10.8,4.5,20.5,11.8,27.4&#10;&#9;&#9;c87.8-12.8,160.9-42.2,207.7-65.2H1062.9z" style="fill: rgb(44, 248, 255);" transform="matrix(1, 0, 0, 1, -928.6126708984375, -505.5780334472656)"/><path id="XMLID_616_" class="st5" d="M1263.6,553.3h-18.9c-46.9,23.1-119.9,52.4-207.7,65.2c6.8,6.4,15.9,10.4,26,10.4h200.7&#10;&#9;&#9;c20.9,0,37.8-16.9,37.8-37.8v0C1301.4,570.2,1284.5,553.3,1263.6,553.3z" style="fill: rgb(58, 189, 199);" transform="matrix(1, 0, 0, 1, -928.6126708984375, -505.5780334472656)"/><path id="XMLID_611_" class="st3" d="M1263.6,632.7h-200.7c-23,0-41.7-18.7-41.7-41.7s18.7-41.7,41.7-41.7h200.7&#10;&#9;&#9;c23,0,41.7,18.7,41.7,41.7S1286.6,632.7,1263.6,632.7z M1062.9,557.1c-18.7,0-33.9,15.2-33.9,33.9s15.2,33.9,33.9,33.9h200.7&#10;&#9;&#9;c18.7,0,33.9-15.2,33.9-33.9s-15.2-33.9-33.9-33.9H1062.9z" style="fill: rgb(19, 31, 82);" transform="matrix(1, 0, 0, 1, -928.6126708984375, -505.5780334472656)"/><path d="M 1269.6 591.099976 A 10.6 10.6 0 0 1 1259 601.699976 A 10.6 10.6 0 0 1 1248.4 591.099976 A 10.6 10.6 0 0 1 1259 580.499975 A 10.6 10.6 0 0 1 1269.6 591.099976 Z" id="XMLID_580_" class="st16" style="fill: rgb(44, 248, 255); stroke: rgb(19, 31, 82); stroke-width: 4; stroke-miterlimit: 10;" transform="matrix(1, 0, 0, 1, -928.6126708984375, -505.5780334472656)"/><path id="XMLID_579_" class="st7" d="M1227.9,600.4H1151c-5.2,0-9.4-4.2-9.4-9.4l0,0c0-5.2,4.2-9.4,9.4-9.4h76.9&#10;&#9;&#9;c5.2,0,9.4,4.2,9.4,9.4l0,0C1237.2,596.2,1233,600.4,1227.9,600.4z" style="fill: rgb(192, 230, 234);" transform="matrix(1, 0, 0, 1, -928.6126708984375, -505.5780334472656)"/><path id="XMLID_625_" class="st4" d="M1063.7,657.5c-20.9,0-37.8,16.9-37.8,37.8v0c0,10.8,4.5,20.5,11.8,27.4&#10;&#9;&#9;c87.8-12.8,160.9-42.2,207.7-65.2H1063.7z" style="fill: rgb(44, 248, 255);" transform="matrix(1, 0, 0, 1, -928.6126708984375, -505.5780334472656)"/><path id="XMLID_622_" class="st5" d="M1264.4,657.5h-18.9c-46.9,23.1-119.9,52.4-207.7,65.2c6.8,6.4,15.9,10.4,26,10.4h200.7&#10;&#9;&#9;c20.9,0,37.8-16.9,37.8-37.8v0C1302.2,674.4,1285.3,657.5,1264.4,657.5z" style="fill: rgb(58, 190, 199);" transform="matrix(1, 0, 0, 1, -928.6126708984375, -505.5780334472656)"/><path id="XMLID_617_" class="st3" d="M1264.4,737h-200.7c-23,0-41.7-18.7-41.7-41.7c0-23,18.7-41.7,41.7-41.7h200.7&#10;&#9;&#9;c23,0,41.7,18.7,41.7,41.7C1306.1,718.3,1287.4,737,1264.4,737z M1063.7,661.4c-18.7,0-33.9,15.2-33.9,33.9&#10;&#9;&#9;c0,18.7,15.2,33.9,33.9,33.9h200.7c18.7,0,33.9-15.2,33.9-33.9c0-18.7-15.2-33.9-33.9-33.9H1063.7z" style="fill: rgb(19, 31, 82);" transform="matrix(1, 0, 0, 1, -928.6126708984375, -505.5780334472656)"/><path d="M 1270.400049 695.299988 A 10.6 10.6 0 0 1 1259.800049 705.899988 A 10.6 10.6 0 0 1 1249.200048 695.299988 A 10.6 10.6 0 0 1 1259.800049 684.699987 A 10.6 10.6 0 0 1 1270.400049 695.299988 Z" id="XMLID_614_" class="st16" style="fill: rgb(44, 248, 255); stroke: rgb(19, 31, 82); stroke-width: 4; stroke-miterlimit: 10;" transform="matrix(1, 0, 0, 1, -928.6126708984375, -505.5780334472656)"/><path id="XMLID_607_" class="st7" d="M1228.6,704.7h-76.9c-5.2,0-9.4-4.2-9.4-9.4v0c0-5.2,4.2-9.4,9.4-9.4h76.9&#10;&#9;&#9;c5.2,0,9.4,4.2,9.4,9.4v0C1238,700.5,1233.8,704.7,1228.6,704.7z" style="fill: rgb(192, 230, 234);" transform="matrix(1, 0, 0, 1, -928.6126708984375, -505.5780334472656)"/><path id="XMLID_632_" class="st4" d="M1062.9,766.5c-20.9,0-37.8,16.9-37.8,37.8v0c0,10.8,4.5,20.5,11.8,27.4&#10;&#9;&#9;c87.8-12.8,160.9-42.2,207.7-65.2H1062.9z" style="fill: rgb(44, 248, 255);" transform="matrix(1, 0, 0, 1, -928.6126708984375, -505.5780334472656)"/><path id="XMLID_631_" class="st5" d="M1263.6,766.5h-18.9c-46.9,23.1-119.9,52.4-207.7,65.2c6.8,6.4,15.9,10.4,26,10.4h200.7&#10;&#9;&#9;c20.9,0,37.8-16.9,37.8-37.8v0C1301.4,783.5,1284.5,766.5,1263.6,766.5z" style="fill: rgb(58, 190, 199);" transform="matrix(1, 0, 0, 1, -928.6126708984375, -505.5780334472656)"/><path id="XMLID_628_" class="st3" d="M1263.6,846h-200.7c-23,0-41.7-18.7-41.7-41.7s18.7-41.7,41.7-41.7h200.7&#10;&#9;&#9;c23,0,41.7,18.7,41.7,41.7S1286.6,846,1263.6,846z M1062.9,770.4c-18.7,0-33.9,15.2-33.9,33.9s15.2,33.9,33.9,33.9h200.7&#10;&#9;&#9;c18.7,0,33.9-15.2,33.9-33.9s-15.2-33.9-33.9-33.9H1062.9z" style="fill: rgb(19, 31, 82);" transform="matrix(1, 0, 0, 1, -928.6126708984375, -505.5780334472656)"/><path d="M 1269.6 804.299988 A 10.6 10.6 0 0 1 1259 814.899988 A 10.6 10.6 0 0 1 1248.4 804.299988 A 10.6 10.6 0 0 1 1259 793.699987 A 10.6 10.6 0 0 1 1269.6 804.299988 Z" id="XMLID_627_" class="st16" style="fill: rgb(44, 248, 255); stroke: rgb(19, 31, 82); stroke-width: 4; stroke-miterlimit: 10;" transform="matrix(1, 0, 0, 1, -928.6126708984375, -505.5780334472656)"/><path id="XMLID_626_" class="st7" d="M1227.9,813.7H1151c-5.2,0-9.4-4.2-9.4-9.4l0,0c0-5.2,4.2-9.4,9.4-9.4h76.9&#10;&#9;&#9;c5.2,0,9.4,4.2,9.4,9.4l0,0C1237.2,809.5,1233,813.7,1227.9,813.7z" style="fill: rgb(192, 230, 234);" transform="matrix(1, 0, 0, 1, -928.6126708984375, -505.5780334472656)"/><path id="XMLID_276_" class="st3" d="M1063.8,762.2L1063.8,762.2c-26.3,0-47.6,21.3-47.6,47.6v7.2h13.5v-9&#10;&#9;&#9;&#9;c0-18.6,15.1-33.8,33.8-33.8l0,0c18.6,0,33.8,15.1,33.8,33.8v9h14.2v-7.2C1111.3,783.4,1090.1,762.2,1063.8,762.2z" style="fill: rgb(19, 31, 82);" transform="matrix(1, 0, 0, 1, -928.6126708984375, -505.5780334472656)"/><path id="XMLID_275_" class="st3" d="M1110.8,816.9h-94.5c-5.5,0-10.1,4.5-10.1,10.1v77.3c0,5.5,4.5,10.1,10.1,10.1h94.5&#10;&#9;&#9;&#9;c5.5,0,10.1-4.5,10.1-10.1v-77.3C1120.8,821.4,1116.3,816.9,1110.8,816.9z M1068.9,864.8v24.9h-10.8v-25.2c-3.3-2-5.5-5.5-5.5-9.7&#10;&#9;&#9;&#9;c0-6.2,5-11.2,11.2-11.2c6.2,0,11.2,5,11.2,11.2C1075.1,859.1,1072.5,863,1068.9,864.8z" style="fill: rgb(19, 31, 82);" transform="matrix(1, 0, 0, 1, -928.6126708984375, -505.5780334472656)"/>
</svg>