<?xml version="1.0" encoding="utf-8"?>
<svg id="master-artboard" viewBox="0 0 577.5144653320312 492.1098327636719" version="1.1" xmlns="http://www.w3.org/2000/svg" x="0px" y="0px" style="enable-background:new 0 0 1400 980;" width="577.5144653320312px" height="492.1098327636719px"><rect id="ee-background" x="0" y="0" width="577.5144653320312" height="492.1098327636719" style="fill: white; fill-opacity: 0; pointer-events: none;"/>


<path d="M 842.199982 202.100006 A 144.399994 144.399994 0 0 1 697.799988 346.5 A 144.399994 144.399994 0 0 1 553.399994 202.100006 A 144.399994 144.399994 0 0 1 697.799988 57.700012 A 144.399994 144.399994 0 0 1 842.199982 202.100006 Z" id="XMLID_596_" class="st1" style="fill: rgb(246, 139, 166);" transform="matrix(1, 0, 0, 1, -411.24273681640625, -4.421966552734375)"/><path id="XMLID_314_" class="st6" d="M907.2,448.8H788.4c-2.1,0-3.8-1.7-3.8-3.8V248.3c0-2.1,1.7-3.8,3.8-3.8h118.8&#10;&#9;&#9;c2.1,0,3.8,1.7,3.8,3.8V445C911,447.1,909.3,448.8,907.2,448.8z" style="fill: rgb(44, 248, 255); stroke: rgb(19, 31, 82); stroke-width: 8; stroke-miterlimit: 10;" transform="matrix(1, 0, 0, 1, -411.24273681640625, -4.421966552734375)"/><path d="M 795.5 261.5 H 901.599998 V 405 H 795.5 V 261.5 Z" id="XMLID_574_" class="st7" style="fill: rgb(120, 196, 221);" transform="matrix(1, 0, 0, 1, -411.24273681640625, -4.421966552734375)"/><path id="XMLID_570_" class="st4" d="M725.1,55.9c-33.7-9-48.1,21.2-49.8,25.3c-0.1,0.2-0.4,0.3-0.6,0.2&#10;&#9;&#9;&#9;c-3.1-1.7-22.4-11.9-38.2-0.1c-15.3,11.4-11.9,25.1-10.9,28c0.1,0.3-0.1,0.6-0.4,0.6c-4.3,0.2-30.4,2.5-33,34.3&#10;&#9;&#9;&#9;c-0.1,0.6-0.1,1.2-0.1,1.8c-0.7,13.6,6.1,25.6,16.8,32.3l142.3-98C747.6,69.9,740.3,59.9,725.1,55.9z" style="fill: rgb(44, 248, 255);" transform="matrix(1, 0, 0, 1, -411.24273681640625, -4.421966552734375)"/><path id="XMLID_569_" class="st5" d="M753.9,108.7c-0.3,0-0.5-0.2-0.5-0.5c0.4-2.8,2-15.6-2.3-28l-142.3,98&#10;&#9;&#9;&#9;c5.6,3.5,12.4,5.6,19.6,5.6h132c10.8,0,21.3-4.7,28.1-13.1c6.1-7.5,10.8-18.6,7.7-34.1C789.9,104.9,758.5,108,753.9,108.7z" style="fill: rgb(116, 189, 214);" transform="matrix(1, 0, 0, 1, -411.24273681640625, -4.421966552734375)"/><path id="XMLID_318_" class="st3" d="M760.4,189.1h-132c-11.6,0-22.7-4.8-30.6-13c-7.8-8.2-11.8-19-11.2-30.4c0-0.7,0.1-1.3,0.1-2&#10;&#9;&#9;&#9;c2.4-28.9,22.3-36.5,32.5-38.5c-0.6-6.9,0.9-18.4,13.9-28.2c14.5-10.9,31.1-6.1,39.4-2.5c5.8-10.2,22.4-32.1,53.8-23.7&#10;&#9;&#9;&#9;c31.3,8.4,33.5,38.8,32.8,52.3c11.8-0.1,36.4,3.3,42.2,32.6c2.9,14.5-0.2,27.8-8.8,38.5C784.9,183.6,773.1,189.1,760.4,189.1z&#10;&#9;&#9;&#9; M653.8,81c-4.7,0-9.6,1.1-14.1,4.5c-12.1,9.1-10,19.2-9,22.1c0.6,1.7,0.3,3.6-0.8,5.1c-1,1.5-2.7,2.4-4.5,2.5&#10;&#9;&#9;&#9;c-4.3,0.2-25.6,2.4-27.9,29.4c0,0.6-0.1,1.1-0.1,1.7c-0.5,8.4,2.5,16.4,8.3,22.5c5.9,6.3,14,9.7,22.8,9.7h132&#10;&#9;&#9;&#9;c9.5,0,18.2-4,23.9-11.1c6.7-8.3,8.9-18.2,6.6-29.7c-5.3-26.6-31.2-24.4-36.3-23.7c-1.8,0.2-3.6-0.4-4.9-1.7&#10;&#9;&#9;&#9;c-1.3-1.3-1.9-3.1-1.6-4.9c1-6.4,4.3-38.7-24.4-46.3c-28.9-7.7-41.3,17.2-43.6,22.2c-0.7,1.5-1.9,2.7-3.5,3.2&#10;&#9;&#9;&#9;c-1.6,0.5-3.3,0.3-4.7-0.5C670.7,85.3,662.8,81,653.8,81z" style="fill: rgb(19, 31, 82);" transform="matrix(1, 0, 0, 1, -411.24273681640625, -4.421966552734375)"/><path d="M 801.799988 272 H 893.699989 V 278.5 H 801.799988 V 272 Z" id="XMLID_571_" class="st2" style="fill: rgb(1, 106, 211);" transform="matrix(1, 0, 0, 1, -411.24273681640625, -4.421966552734375)"/><path d="M 801.799988 285.200012 H 893.699989 V 291.700012 H 801.799988 V 285.200012 Z" id="XMLID_573_" class="st2" style="fill: rgb(1, 106, 211);" transform="matrix(1, 0, 0, 1, -411.24273681640625, -4.421966552734375)"/><path d="M 801.799988 298.5 H 893.699989 V 305 H 801.799988 V 298.5 Z" id="XMLID_576_" class="st2" style="fill: rgb(1, 106, 211);" transform="matrix(1, 0, 0, 1, -411.24273681640625, -4.421966552734375)"/><path id="XMLID_582_" class="st18" d="M893.9,366.2h-92.2c-0.9,0-1.7-0.7-1.7-1.7v-0.3c0-0.9,0.7-1.7,1.7-1.7h92.2&#10;&#9;&#9;c0.9,0,1.7,0.7,1.7,1.7v0.3C895.5,365.4,894.8,366.2,893.9,366.2z" style="fill: rgb(196, 195, 194);" transform="matrix(1, 0, 0, 1, -411.24273681640625, -4.421966552734375)"/><path id="XMLID_581_" class="st18" d="M893.9,372.9h-92.2c-0.9,0-1.7-0.7-1.7-1.7v-0.3c0-0.9,0.7-1.7,1.7-1.7h92.2&#10;&#9;&#9;c0.9,0,1.7,0.7,1.7,1.7v0.3C895.5,372.2,894.8,372.9,893.9,372.9z" style="fill: rgb(196, 195, 194);" transform="matrix(1, 0, 0, 1, -411.24273681640625, -4.421966552734375)"/><path id="XMLID_586_" class="st18" d="M893.9,379.8h-92.2c-0.9,0-1.7-0.7-1.7-1.7v-0.3c0-0.9,0.7-1.7,1.7-1.7h92.2&#10;&#9;&#9;c0.9,0,1.7,0.7,1.7,1.7v0.3C895.5,379.1,894.8,379.8,893.9,379.8z" style="fill: rgb(196, 195, 194);" transform="matrix(1, 0, 0, 1, -411.24273681640625, -4.421966552734375)"/><path id="XMLID_585_" class="st18" d="M893.9,386.6h-92.2c-0.9,0-1.7-0.7-1.7-1.7v-0.3c0-0.9,0.7-1.7,1.7-1.7h92.2&#10;&#9;&#9;c0.9,0,1.7,0.7,1.7,1.7v0.3C895.5,385.8,894.8,386.6,893.9,386.6z" style="fill: rgb(196, 195, 194);" transform="matrix(1, 0, 0, 1, -411.24273681640625, -4.421966552734375)"/><path id="XMLID_584_" class="st18" d="M893.9,393.5h-92.2c-0.9,0-1.7-0.7-1.7-1.7v-0.3c0-0.9,0.7-1.7,1.7-1.7h92.2&#10;&#9;&#9;c0.9,0,1.7,0.7,1.7,1.7v0.3C895.5,392.7,894.8,393.5,893.9,393.5z" style="fill: rgb(196, 195, 194);" transform="matrix(1, 0, 0, 1, -411.24273681640625, -4.421966552734375)"/><path id="XMLID_583_" class="st18" d="M893.9,400.2h-92.2c-0.9,0-1.7-0.7-1.7-1.7v-0.3c0-0.9,0.7-1.7,1.7-1.7h92.2&#10;&#9;&#9;c0.9,0,1.7,0.7,1.7,1.7v0.3C895.5,399.4,894.8,400.2,893.9,400.2z" style="fill: rgb(196, 195, 194);" transform="matrix(1, 0, 0, 1, -411.24273681640625, -4.421966552734375)"/><path d="M 869.900012 329.399994 A 4.7 4.7 0 0 1 865.200012 334.099994 A 4.7 4.7 0 0 1 860.500012 329.399994 A 4.7 4.7 0 0 1 865.200012 324.699994 A 4.7 4.7 0 0 1 869.900012 329.399994 Z" id="XMLID_578_" class="st15" style="fill: rgb(50, 60, 240); stroke: rgb(19, 31, 82); stroke-width: 4; stroke-miterlimit: 10;" transform="matrix(1, 0, 0, 1, -411.24273681640625, -4.421966552734375)"/><path d="M 891.799975 329.399994 A 4.7 4.7 0 0 1 887.099976 334.099994 A 4.7 4.7 0 0 1 882.399976 329.399994 A 4.7 4.7 0 0 1 887.099976 324.699994 A 4.7 4.7 0 0 1 891.799975 329.399994 Z" id="XMLID_572_" class="st16" style="fill: rgb(246, 139, 166); stroke: rgb(19, 31, 82); stroke-width: 4; stroke-miterlimit: 10;" transform="matrix(1, 0, 0, 1, -411.24273681640625, -4.421966552734375)"/><path id="XMLID_311_" class="st4" d="M486.2,405.2V273.9h174.5l18.8-14.2c-1.3-2-3.5-3.3-6-3.3H477.2c-4,0-7.2,3.2-7.2,7.2v151.8&#10;&#9;&#9;&#9;c0,0.8,0.1,1.5,0.3,2.2l16.5-12.4H486.2z" style="fill: rgb(44, 248, 255);" transform="matrix(1, 0, 0, 1, -411.24273681640625, -4.421966552734375)"/><path id="XMLID_312_" class="st5" d="M660.7,273.9h3.8v131.3H486.8l-16.5,12.4c0.9,2.9,3.6,5,6.8,5h196.2c4,0,7.2-3.2,7.2-7.2&#10;&#9;&#9;&#9;V263.7c0-1.5-0.4-2.8-1.2-3.9L660.7,273.9z" style="fill: rgb(101, 165, 187);" transform="matrix(1, 0, 0, 1, -411.24273681640625, -4.421966552734375)"/><path d="M 486.20001220703125 405.20001220703125 L 486.79998779296875 405.20001220703125 L 660.7000122070312 273.8999938964844 L 486.20001220703125 273.8999938964844 Z" id="XMLID_313_" class="st2" style="fill: rgb(1, 107, 211);" transform="matrix(1, 0, 0, 1, -411.24273681640625, -4.421966552734375)"/><path d="M 664.5 405.20001220703125 L 664.5 273.8999938964844 L 660.7000122070312 273.8999938964844 L 486.79998779296875 405.20001220703125 Z" id="XMLID_316_" class="st8" style="fill: rgb(1, 93, 186);" transform="matrix(1, 0, 0, 1, -411.24273681640625, -4.421966552734375)"/><path id="XMLID_298_" class="st6" d="M591.8,422.6h-29.6c-10.7,0-19.5,8.7-19.5,19.5v1.7h68.5v-1.7&#10;&#9;&#9;&#9;C611.2,431.3,602.5,422.6,591.8,422.6z" style="fill: rgb(164, 219, 222); stroke: rgb(19, 31, 82); stroke-width: 8; stroke-miterlimit: 10;" transform="matrix(1, 0, 0, 1, -411.24273681640625, -4.421966552734375)"/><path id="XMLID_302_" class="st3" d="M673.4,425.7H477.2c-5.7,0-10.3-4.6-10.3-10.3V263.7c0-5.7,4.6-10.3,10.3-10.3h196.2&#10;&#9;&#9;&#9;c5.7,0,10.3,4.6,10.3,10.3v151.8C683.7,421.1,679.1,425.7,673.4,425.7z M477.2,259.6c-2.3,0-4.1,1.9-4.1,4.1v151.8&#10;&#9;&#9;&#9;c0,2.3,1.9,4.1,4.1,4.1h196.2c2.3,0,4.1-1.9,4.1-4.1V263.7c0-2.3-1.9-4.1-4.1-4.1H477.2z" style="fill: rgb(19, 31, 82);" transform="matrix(1, 0, 0, 1, -411.24273681640625, -4.421966552734375)"/><path id="XMLID_590_" class="st19" d="M576.8,307.3c4.4,0,8.6,0.5,12.9,1.5c5.3,1.3,10.6,3.3,15.4,6.1c4.3,2.4,8.1,5.3,11.7,8.7&#10;&#9;&#9;&#9;&#9;c2.2,2.1,4.1,4.3,6,6.6c1.1,1.4,1.3,3.2,0.5,4.8c-0.8,1.7-2.1,2.6-3.8,2.7c-1.3,0-2.4-0.5-3.3-1.5c-1.4-1.7-2.8-3.4-4.4-4.9&#10;&#9;&#9;&#9;&#9;c-3.3-3.2-6.8-5.9-10.6-8.2c-4.7-2.7-9.7-4.6-14.9-5.7c-3.7-0.8-7.5-1-11.2-0.9c-3.9,0.1-7.8,0.8-11.7,2c-3.4,1-6.6,2.4-9.8,4.1&#10;&#9;&#9;&#9;&#9;c-3.7,2.1-7.2,4.6-10.4,7.5c-2,1.9-3.7,3.7-5.3,5.9c-1.6,2.1-4.3,2.2-6,0.8c-1.9-1.5-2.3-4.5-0.9-6.4c1.5-2.1,3.3-3.9,5-5.8&#10;&#9;&#9;&#9;&#9;c1.3-1.3,2.7-2.6,4.1-3.8c2.9-2.5,6.1-4.7,9.5-6.5c4.6-2.5,9.5-4.5,14.5-5.7c2.8-0.7,5.8-1.1,8.7-1.3&#10;&#9;&#9;&#9;&#9;C574,307.4,575.4,307.3,576.8,307.3z" style="fill: rgb(255, 255, 255);" transform="matrix(1, 0, 0, 1, -411.24273681640625, -4.421966552734375)"/><path id="XMLID_589_" class="st19" d="M576.5,325.5c5.9,0,11.3,1.1,16.6,3.4c4.3,1.9,8.1,4.4,11.6,7.5c1.7,1.6,3.4,3.4,4.9,5.3&#10;&#9;&#9;&#9;&#9;c2.1,2.6,1,6.4-2,7.5c-1.6,0.5-3.6-0.1-4.7-1.5c-3.4-4.3-7.5-7.6-12.3-9.8c-3.1-1.4-6.2-2.4-9.5-2.8c-2.5-0.3-5.1-0.3-7.6-0.1&#10;&#9;&#9;&#9;&#9;c-3.3,0.3-6.5,1.2-9.6,2.5c-3.5,1.5-6.6,3.6-9.5,6.3c-1.4,1.3-2.6,2.7-3.8,4.1c-1.1,1.3-2.5,1.7-4.1,1.3&#10;&#9;&#9;&#9;&#9;c-1.6-0.4-2.7-1.4-3.2-3.2c-0.5-1.7-0.1-3.3,1-4.6c2.2-2.7,4.6-5.1,7.2-7.2c4.4-3.5,9.3-6,14.5-7.4&#10;&#9;&#9;&#9;&#9;C569.5,326.1,573.1,325.5,576.5,325.5z" style="fill: rgb(255, 255, 255);" transform="matrix(1, 0, 0, 1, -411.24273681640625, -4.421966552734375)"/><path id="XMLID_588_" class="st19" d="M576.7,343.8c5,0,9.7,1.5,14,4.4c2.2,1.5,4.3,3.4,5.9,5.6c1.1,1.4,1.2,3.1,0.5,4.7&#10;&#9;&#9;&#9;&#9;c-0.8,1.6-2,2.6-3.7,2.7c-1.4,0.1-2.6-0.4-3.5-1.6c-1.9-2.3-4.1-4-6.8-5.2c-1.6-0.7-3.4-1.1-5.1-1.2c-2.6-0.2-5.1,0.2-7.5,1.3&#10;&#9;&#9;&#9;&#9;c-2.5,1.1-4.7,2.7-6.5,5c-1.2,1.5-3.1,2.2-4.8,1.5c-2.9-1-3.9-4.9-2-7.4c2.4-2.9,5.1-5.3,8.5-7c3.1-1.6,6.3-2.5,9.8-2.7&#10;&#9;&#9;&#9;&#9;c0.2,0,0.4,0,0.7-0.1C576.3,343.7,576.5,343.8,576.7,343.8z" style="fill: rgb(255, 255, 255);" transform="matrix(1, 0, 0, 1, -411.24273681640625, -4.421966552734375)"/><path d="M 586.600012 371.200012 A 9.4 9.4 0 0 1 577.200012 380.600012 A 9.4 9.4 0 0 1 567.800013 371.200012 A 9.4 9.4 0 0 1 577.200012 361.800013 A 9.4 9.4 0 0 1 586.600012 371.200012 Z" id="XMLID_591_" class="st19" style="fill: rgb(255, 255, 255);" transform="matrix(1, 0, 0, 1, -411.24273681640625, -4.421966552734375)"/><path id="XMLID_598_" class="st8" d="M545.3,127.2L545.3,127.2c-2.3,1.9-2.6,5.4-0.7,7.7l7.7,9.2h-38.8c-9.2,0-16.7,7.5-16.7,16.7&#10;&#9;&#9;&#9;l0,25.7c0,3,2.4,5.4,5.4,5.4l0,0c3,0,5.4-2.4,5.4-5.4l0-23.6c0-4.3,3.5-7.8,7.8-7.8h36.5l-7.4,8.7c-2,2.3-1.7,5.7,0.6,7.7l0,0&#10;&#9;&#9;&#9;c2.3,2,5.7,1.7,7.7-0.6l18-21.1l-18-21.7C551.1,125.6,547.6,125.2,545.3,127.2z" style="fill: rgb(1, 106, 211);" transform="matrix(1, 0, 0, 1, -411.24273681640625, -4.421966552734375)"/><path id="XMLID_593_" class="st8" d="M502.7,215.6h-0.9c-2.7,0-5-2.2-5-5v-8.4c0-2.7,2.2-5,5-5h0.9c2.7,0,5,2.2,5,5v8.4&#10;&#9;&#9;&#9;C507.7,213.4,505.4,215.6,502.7,215.6z" style="fill: rgb(1, 106, 211);" transform="matrix(1, 0, 0, 1, -411.24273681640625, -4.421966552734375)"/><path id="XMLID_595_" class="st8" d="M502.7,231.4h-0.9c-2.7,0-5-2.2-5-5v-0.9c0-2.7,2.2-5,5-5h0.9c2.7,0,5,2.2,5,5v0.9&#10;&#9;&#9;&#9;C507.7,229.2,505.4,231.4,502.7,231.4z" style="fill: rgb(1, 106, 211);" transform="matrix(1, 0, 0, 1, -411.24273681640625, -4.421966552734375)"/><path id="XMLID_601_" class="st8" d="M842.9,126.9L842.9,126.9c2.3,1.9,2.6,5.4,0.7,7.7l-7.7,9.2h38.8c9.2,0,16.7,7.5,16.7,16.7&#10;&#9;&#9;&#9;l0,25.7c0,3-2.4,5.4-5.4,5.4l0,0c-3,0-5.4-2.4-5.4-5.4l0-23.6c0-4.3-3.5-7.8-7.8-7.8h-36.5l7.4,8.7c2,2.3,1.7,5.7-0.6,7.7l0,0&#10;&#9;&#9;&#9;c-2.3,2-5.7,1.7-7.7-0.6l-18-21.1l18-21.7C837.2,125.3,840.6,125,842.9,126.9z" style="fill: rgb(1, 106, 211);" transform="matrix(1, 0, 0, 1, -411.24273681640625, -4.421966552734375)"/><path id="XMLID_600_" class="st8" d="M885.6,215.4h0.9c2.7,0,5-2.2,5-5V202c0-2.7-2.2-5-5-5h-0.9c-2.7,0-5,2.2-5,5v8.4&#10;&#9;&#9;&#9;C880.6,213.2,882.8,215.4,885.6,215.4z" style="fill: rgb(1, 106, 211);" transform="matrix(1, 0, 0, 1, -411.24273681640625, -4.421966552734375)"/><path id="XMLID_599_" class="st8" d="M885.6,231.2h0.9c2.7,0,5-2.2,5-5v-0.9c0-2.7-2.2-5-5-5h-0.9c-2.7,0-5,2.2-5,5v0.9&#10;&#9;&#9;&#9;C880.6,229,882.8,231.2,885.6,231.2z" style="fill: rgb(1, 106, 211);" transform="matrix(1, 0, 0, 1, -411.24273681640625, -4.421966552734375)"/><path id="XMLID_604_" class="st8" d="M686,177l-28.3-30.8c-0.8-0.9-2.2-0.9-3,0L626.5,177c-1.2,1.3-0.3,3.5,1.5,3.5h16&#10;&#9;&#9;c0.5,0,0.9,0.4,0.9,0.9v30.9c0,0.5,0.4,0.9,0.9,0.9h21c0.5,0,0.9-0.4,0.9-0.9v-30.9c0-0.5,0.4-0.9,0.9-0.9h16&#10;&#9;&#9;C686.3,180.5,687.2,178.3,686,177z" style="fill: rgb(1, 106, 211);" transform="matrix(1, 0, 0, 1, -411.24273681640625, -4.421966552734375)"/><path id="XMLID_603_" class="st0" d="M699.8,180.6l28.3,30.8c0.8,0.9,2.2,0.9,3,0l28.3-30.8c1.2-1.3,0.3-3.5-1.5-3.5h-16&#10;&#9;&#9;c-0.5,0-0.9-0.4-0.9-0.9v-30.9c0-0.5-0.4-0.9-0.9-0.9h-21c-0.5,0-0.9,0.4-0.9,0.9v30.9c0,0.5-0.4,0.9-0.9,0.9h-16&#10;&#9;&#9;C699.6,177.1,698.6,179.2,699.8,180.6z" style="fill: rgb(255, 252, 234);" transform="matrix(1, 0, 0, 1, -411.24273681640625, -4.421966552734375)"/>
<path d="M 288.0635070800781 84.65315246582031" style="fill: rgb(44, 248, 255); fill-opacity: 1; stroke: rgb(0, 0, 0); stroke-opacity: 1; stroke-width: 0; paint-order: fill;"/><path d="M 392.7166748046875 423.67041015625" style="fill: rgb(44, 248, 255); fill-opacity: 1; stroke: rgb(1, 60, 66); stroke-opacity: 1; stroke-width: 8; paint-order: stroke;"/><path d="M 311.6473388671875 133.2947540283203" style="fill: rgb(116, 189, 214); fill-opacity: 1; stroke: rgb(0, 0, 0); stroke-opacity: 1; stroke-width: 0; paint-order: fill;"/><path d="M 140.66470336914062 12.427733421325684" style="fill: rgb(1, 60, 66); fill-opacity: 1; stroke: rgb(0, 0, 0); stroke-opacity: 1; stroke-width: 0; paint-order: fill;"/><path d="M 117.08089447021484 249.7398223876953" style="fill: rgb(1, 93, 186); fill-opacity: 1; stroke: rgb(0, 0, 0); stroke-opacity: 1; stroke-width: 0; paint-order: fill;"/></svg>